<?xml version="1.0" encoding="utf-8"?>
<!-- Generator: Adobe Illustrator 24.0.0, SVG Export Plug-In . SVG Version: 6.00 Build 0)  -->
<svg version="1.1" id="Livello_1" xmlns="http://www.w3.org/2000/svg" xmlns:xlink="http://www.w3.org/1999/xlink" x="0px" y="0px"
	 viewBox="0 0 968.66 440.44" style="enable-background:new 0 0 968.66 440.44;" xml:space="preserve">
<style type="text/css">
	.st0{fill:#FFFFFF;}
	.st1{fill:none;stroke:#000000;stroke-width:3.0867;}
</style>
<rect x="412.79" width="10.17" height="440.44"/>
<path d="M477.6,314.05c0,10.7,0,19.5-0.56,24.18c-0.45,3.23-1,5.68-3.23,6.13c-1,0.22-2.34,0.45-3.34,0.45
	c-0.67,0-0.89,0.33-0.89,0.67c0,0.67,0.56,0.89,1.78,0.89c3.34,0,10.36-0.34,10.92-0.34c0.56,0,7.58,0.34,13.71,0.34
	c1.23,0,1.78-0.34,1.78-0.89c0-0.33-0.22-0.67-0.89-0.67c-1,0-3.46-0.22-5.02-0.45c-3.34-0.45-4.01-2.9-4.35-6.13
	c-0.56-4.68-0.56-13.49-0.56-24.18v-9.47c0-0.78,0.22-1,0.78-1c1.89,0,14.04,0,16.83,0.34c3.46,0.45,5.24,2.45,5.79,4.01
	c0.45,1.34,0.56,2.9,0.67,4.01c0,0.56,0.22,1,0.78,1c0.78,0,0.78-1.11,0.78-2.12c0-0.78,0.22-5.24,0.45-7.47
	c0.33-3.68,0.89-5.57,0.89-6.24c0-0.56-0.11-0.89-0.56-0.89s-0.78,0.56-1.23,1.11c-1,1.45-2.45,1.78-5.13,2.01
	c-1.56,0.11-3.12,0.11-5.02,0.11l-14.26,0.11c-0.67,0-0.78-0.33-0.78-1V267.8c0-0.89,0.33-1.23,1-1.23l17.16,0.33
	c4.35,0.11,6.91,2.12,7.58,3.57c0.67,1.45,1,3.34,1,4.23c0,0.78,0.22,1.34,0.78,1.34c0.56,0,0.78-0.67,0.89-1.23
	c0.22-1.34,0.45-6.24,0.56-7.35c0.34-3.12,0.89-4.46,0.89-5.24c0-0.56-0.22-1-0.67-1c-0.45,0-0.89,0.45-1.56,0.67
	c-1,0.33-2.79,0.33-4.9,0.45c-2.56,0.11-25.19,0.11-27.42,0.11c-0.56,0-7.58-0.34-12.59-0.34c-1.23,0-1.78,0.22-1.78,0.89
	c0,0.45,0.45,0.67,0.89,0.67c1,0,2.9,0.11,3.79,0.33c3.68,0.78,4.57,2.56,4.79,6.35c0.22,3.57,0.22,6.69,0.22,24.07V314.05
	 M552.94,294.44c0-17.39,0-20.51,0.22-24.07c0.22-3.9,1.11-5.8,4.12-6.35c1.34-0.22,2.01-0.33,2.79-0.33c0.45,0,0.89-0.22,0.89-0.67
	c0-0.67-0.56-0.89-1.78-0.89c-3.34,0-10.36,0.34-10.92,0.34s-7.58-0.34-11.26-0.34c-1.23,0-1.78,0.22-1.78,0.89
	c0,0.45,0.45,0.67,0.89,0.67c0.78,0,2.23,0.11,3.46,0.44c2.45,0.56,3.57,2.45,3.79,6.24c0.22,3.57,0.22,6.69,0.22,24.07v19.62
	c0,10.7,0,19.5-0.56,24.18c-0.45,3.23-1,5.68-3.23,6.13c-1,0.22-2.34,0.45-3.34,0.45c-0.67,0-0.89,0.33-0.89,0.67
	c0,0.67,0.56,0.89,1.78,0.89c3.34,0,10.36-0.34,10.92-0.34s7.58,0.34,13.71,0.34c1.23,0,1.78-0.34,1.78-0.89
	c0-0.33-0.22-0.67-0.89-0.67c-1,0-3.45-0.22-5.01-0.45c-3.34-0.45-4.01-2.9-4.35-6.13c-0.56-4.68-0.56-13.49-0.56-24.18V294.44
	L552.94,294.44z M592.61,314.05c0,10.7,0,19.5-0.56,24.18c-0.45,3.23-1,5.68-3.23,6.13c-1,0.22-2.34,0.45-3.34,0.45
	c-0.67,0-0.89,0.33-0.89,0.67c0,0.67,0.56,0.89,1.78,0.89c3.34,0,10.36-0.34,10.48-0.34c0.56,0,7.58,0.34,13.71,0.34
	c1.23,0,1.78-0.34,1.78-0.89c0-0.33-0.22-0.67-0.89-0.67c-1,0-3.46-0.22-5.02-0.45c-3.34-0.45-4.01-2.9-4.35-6.13
	c-0.56-4.68-0.56-13.49-0.56-24.18v-2.68c0-0.56,0.22-0.89,0.78-0.89l13.71,0.22c0.67,0,1,0.22,1.45,0.67
	c2.23,2.9,7.47,10.37,12.15,16.49c6.35,8.36,10.25,13.82,15.05,16.38c2.9,1.56,5.68,2.12,11.93,2.12h7.91
	c2.01,0,2.67-0.22,2.67-0.89c0-0.33-0.45-0.67-1-0.67c-0.67,0-2.23,0-4.35-0.33c-2.79-0.45-7.58-1.67-13.6-8.02
	c-6.46-6.91-14.04-16.83-23.18-28.53c10.03-9.25,13.48-17.5,13.48-25.75c0-7.69-4.9-13.15-7.69-15.16
	c-5.91-4.23-13.37-4.9-20.39-4.9c-3.46,0-11.92,0.34-13.15,0.34c-0.56,0-7.58-0.34-12.59-0.34c-1.23,0-1.78,0.22-1.78,0.89
	c0,0.45,0.45,0.67,0.89,0.67c1,0,2.9,0.11,3.79,0.33c3.68,0.78,4.57,2.56,4.79,6.35c0.22,3.57,0.22,6.69,0.22,24.07V314.05
	L592.61,314.05z M601.53,267.69c0-0.67,0.34-1.11,0.89-1.34c1.11-0.33,4.12-0.67,7.47-0.67c11.92,0,19.28,8.36,19.28,22.29
	c0,8.47-2.9,14.49-6.8,17.16c-2.56,1.78-5.68,2.12-8.36,2.12c-4.9,0-10.03-0.78-11.7-1.78c-0.56-0.33-0.78-0.78-0.78-1.34V267.69
	L601.53,267.69z M676.65,314.05c0,10.7,0,19.5-0.56,24.18c-0.45,3.23-1,5.68-3.23,6.13c-1,0.22-2.34,0.45-3.34,0.45
	c-0.67,0-0.89,0.33-0.89,0.67c0,0.67,0.56,0.89,1.78,0.89c3.34,0,10.36-0.34,10.92-0.34c3.23,0,10.7,0.67,27.53,0.67
	c4.35,0,5.24,0,6.02-2.9c0.56-2.34,1.45-9.92,1.45-10.81c0-0.78,0-1.67-0.67-1.67c-0.56,0-0.78,0.45-1,1.67
	c-0.78,4.57-2.12,6.8-5.02,8.02c-2.9,1.23-7.8,1.23-10.7,1.23c-10.92,0-12.59-1.45-12.93-9.14c-0.11-2.34,0-15.27,0-19.06v-9.81
	c0-0.45,0.22-0.78,0.78-0.78c1.89,0,12.93,0.22,15.94,0.56c4.35,0.45,5.35,2.34,5.8,3.9c0.45,1.45,0.45,2.56,0.45,3.68
	c0,0.56,0.22,1,0.78,1c0.78,0,0.78-1.23,0.78-2.12c0-0.78,0.22-4.9,0.45-7.13c0.33-3.68,0.89-5.57,0.89-6.24
	c0-0.67-0.22-0.89-0.56-0.89c-0.45,0-0.89,0.56-1.67,1.45c-1,1.11-2.56,1.34-5.24,1.56c-2.56,0.22-16.27,0.22-17.72,0.22
	c-0.56,0-0.67-0.33-0.67-1.11v-30.76c0-0.78,0.22-1.11,0.67-1.11c1.23,0,13.37,0.11,15.27,0.33c6.02,0.67,7.13,2.01,7.91,3.79
	c0.56,1.34,0.67,3.23,0.67,4.01c0,0.89,0.22,1.45,0.89,1.45c0.45,0,0.67-0.67,0.78-1.23c0.22-1.34,0.45-6.24,0.56-7.35
	c0.33-3.12,0.89-4.46,0.89-5.24c0-0.56-0.11-1-0.45-1c-0.56,0-1,0.45-1.56,0.56c-0.89,0.22-2.67,0.45-4.79,0.56
	c-2.56,0.11-24.74,0.11-25.52,0.11c-0.56,0-7.58-0.34-12.59-0.34c-1.23,0-1.78,0.22-1.78,0.89c0,0.45,0.45,0.67,0.89,0.67
	c1,0,2.9,0.11,3.79,0.33c3.68,0.78,4.57,2.56,4.79,6.35c0.22,3.57,0.22,6.69,0.22,24.07V314.05L676.65,314.05z M746.19,277.83
	c3.57,4.01,16.16,18.05,29.09,31.98c11.81,12.71,27.86,29.09,29.09,30.2c5.91,5.91,7.24,7.13,8.14,7.13c0.78,0,1-0.56,1-7.91
	l0.22-65.31c0-6.69,0.45-9.14,4.12-9.92c1.34-0.33,2.12-0.33,2.68-0.33c0.78,0,1.23-0.34,1.23-0.78c0-0.67-0.78-0.78-2.01-0.78
	c-4.57,0-8.25,0.34-9.47,0.34c-1.23,0-6.57-0.34-11.59-0.34c-1.34,0-2.23,0.11-2.23,0.78c0,0.45,0.11,0.78,0.89,0.78
	c0.89,0,3.45,0.11,5.46,0.56c3.45,0.89,4.23,3.34,4.35,10.59l1.23,56.62c-3.57-3.68-15.71-17.27-26.75-29.09
	c-17.16-18.39-33.77-36.33-35.44-38.23c-1.11-1.11-3.01-3.57-3.9-3.57c-0.89,0-1.22,1.23-1.22,5.57l-0.11,63.86
	c0,10.14-0.56,13.37-3.34,14.15c-1.67,0.56-3.68,0.67-4.57,0.67c-0.56,0-0.89,0.22-0.89,0.67c0,0.78,0.67,0.89,1.78,0.89
	c5.01,0,9.7-0.34,10.7-0.34s5.46,0.34,11.81,0.34c1.34,0,2.01-0.22,2.01-0.89c0-0.45-0.33-0.67-0.89-0.67c-1,0-3.45-0.11-5.57-0.67
	c-3.01-0.89-4.12-3.79-4.35-12.93L746.19,277.83L746.19,277.83z M850.84,341.58c16.94-25.63,33.77-51.27,49.93-76.9
	c0.45-0.67,0.45-0.89,0.45-1.34c0-0.67-0.56-0.89-2.23-0.89h-31.1c-3.45,0-8.8,0.11-19.39-0.34c-3.01-0.11-3.68-0.78-4.68-0.78
	c-0.67,0-0.89,0.56-1.11,2.12c-0.56,3.34-2.23,13.49-2.23,14.82c0,0.89,0.11,1.45,0.67,1.45c0.56,0,1-0.33,1.23-2.01
	c0.33-2.56,2.34-6.69,6.35-8.8c3.57-1.89,10.37-2.23,16.05-2.23h24.18c-15.49,25.19-32.32,50.26-48.93,75.34
	c-1.34,2.01-1.56,2.56-1.56,3.12c0,0.78,0.67,0.89,2.01,0.89c19.5,0,38.23,0.56,56.84,0.56c2.56,0,2.67-0.22,3.34-2.9
	c0.67-2.79,2.23-9.36,2.23-12.82c0-2.12-0.22-2.56-0.89-2.56c-0.56,0-0.78,0.67-1,1.78c-0.22,1.56-1.23,4.57-2.23,6.02
	c-2.34,3.34-5.91,5.46-17.61,5.46H850.84L850.84,341.58z M927.29,314.05c0,10.7,0,19.5-0.56,24.18c-0.45,3.23-1,5.68-3.23,6.13
	c-1,0.22-2.34,0.45-3.34,0.45c-0.67,0-0.89,0.33-0.89,0.67c0,0.67,0.56,0.89,1.78,0.89c3.34,0,10.36-0.34,10.92-0.34
	c3.23,0,10.7,0.67,27.53,0.67c4.35,0,5.24,0,6.02-2.9c0.56-2.34,1.45-9.92,1.45-10.81c0-0.78,0-1.67-0.67-1.67
	c-0.56,0-0.78,0.45-1,1.67c-0.78,4.57-2.12,6.8-5.01,8.02c-2.9,1.23-7.8,1.23-10.7,1.23c-10.92,0-12.59-1.45-12.93-9.14
	c-0.11-2.34,0-15.27,0-19.06v-9.81c0-0.45,0.22-0.78,0.78-0.78c1.89,0,12.93,0.22,15.94,0.56c4.35,0.45,5.35,2.34,5.8,3.9
	c0.45,1.45,0.45,2.56,0.45,3.68c0,0.56,0.22,1,0.78,1c0.78,0,0.78-1.23,0.78-2.12c0-0.78,0.22-4.9,0.45-7.13
	c0.33-3.68,0.89-5.57,0.89-6.24c0-0.67-0.22-0.89-0.56-0.89c-0.45,0-0.89,0.56-1.67,1.45c-1,1.11-2.56,1.34-5.24,1.56
	c-2.56,0.22-16.27,0.22-17.72,0.22c-0.56,0-0.67-0.33-0.67-1.11v-30.76c0-0.78,0.22-1.11,0.67-1.11c1.23,0,13.37,0.11,15.27,0.33
	c6.02,0.67,7.13,2.01,7.91,3.79c0.56,1.34,0.67,3.23,0.67,4.01c0,0.89,0.22,1.45,0.89,1.45c0.45,0,0.67-0.67,0.78-1.23
	c0.22-1.34,0.45-6.24,0.56-7.35c0.33-3.12,0.89-4.46,0.89-5.24c0-0.56-0.11-1-0.45-1c-0.56,0-1,0.45-1.56,0.56
	c-0.89,0.22-2.67,0.45-4.79,0.56c-2.56,0.11-24.74,0.11-25.52,0.11c-0.56,0-7.58-0.34-12.59-0.34c-1.23,0-1.78,0.22-1.78,0.89
	c0,0.45,0.45,0.67,0.89,0.67c1,0,2.9,0.11,3.79,0.33c3.68,0.78,4.57,2.56,4.79,6.35c0.22,3.57,0.22,6.69,0.22,24.07V314.05
	L927.29,314.05z"/>
<path d="M474.59,207.43c0,6.83,0,12.45-0.36,15.43c-0.28,2.06-0.64,3.63-2.06,3.91c-0.64,0.14-1.49,0.28-2.13,0.28
	c-0.43,0-0.57,0.21-0.57,0.43c0,0.43,0.36,0.57,1.14,0.57c2.13,0,6.61-0.21,6.97-0.21c0.71,0,9.67,0.85,15.79,0.85
	c12.09,0,18.49-4.98,21.55-8.18c3.98-4.2,7.68-11.1,7.68-20.06c0-8.46-3.34-14.37-6.9-18.07c-8.46-8.75-21.48-8.11-28.52-8.11
	c-4.27,0-8.75,0.21-9.6,0.21c-0.36,0-4.84-0.21-8.04-0.21c-0.78,0-1.14,0.14-1.14,0.57c0,0.29,0.28,0.43,0.57,0.43
	c0.64,0,1.85,0.07,2.42,0.21c2.35,0.5,2.92,1.64,3.06,4.06c0.14,2.28,0.14,4.27,0.14,15.36V207.43L474.59,207.43z M480.56,193.77
	c0-5.48,0-12.73,0.07-15.15c0-0.78,0.21-1.14,0.85-1.42c0.57-0.28,3.2-0.5,4.62-0.5c8.46,0,16.57,1,23.26,8.04
	c2.92,3.06,6.83,8.89,6.83,17.93c0,6.54-1.99,13.37-5.69,17c-4.2,4.2-10.31,6.62-16.93,6.62c-8.39,0-11.17-1.49-12.09-2.85
	c-0.57-0.78-0.71-3.63-0.78-5.41c-0.07-1.35-0.14-7.9-0.14-15.43V193.77L480.56,193.77z M539.12,207.43c0,6.83,0,12.45-0.36,15.43
	c-0.29,2.06-0.64,3.63-2.06,3.91c-0.64,0.14-1.49,0.28-2.13,0.28c-0.43,0-0.57,0.21-0.57,0.43c0,0.43,0.36,0.57,1.14,0.57
	c2.13,0,6.61-0.21,6.97-0.21c2.06,0,6.83,0.43,17.57,0.43c2.77,0,3.34,0,3.84-1.85c0.36-1.49,0.92-6.33,0.92-6.9
	c0-0.5,0-1.07-0.43-1.07c-0.36,0-0.5,0.28-0.64,1.07c-0.5,2.92-1.35,4.34-3.2,5.12c-1.85,0.78-4.98,0.78-6.83,0.78
	c-6.97,0-8.04-0.93-8.25-5.83c-0.07-1.49,0-9.74,0-12.16v-6.26c0-0.28,0.14-0.5,0.5-0.5c1.21,0,8.25,0.14,10.17,0.36
	c2.77,0.28,3.41,1.49,3.7,2.49c0.28,0.93,0.28,1.64,0.28,2.35c0,0.35,0.14,0.64,0.5,0.64c0.5,0,0.5-0.78,0.5-1.35
	c0-0.5,0.14-3.13,0.28-4.55c0.21-2.35,0.57-3.56,0.57-3.98c0-0.43-0.14-0.57-0.36-0.57c-0.29,0-0.57,0.35-1.07,0.92
	c-0.64,0.71-1.64,0.85-3.34,1c-1.64,0.14-10.38,0.14-11.31,0.14c-0.35,0-0.43-0.21-0.43-0.71v-19.63c0-0.5,0.14-0.71,0.43-0.71
	c0.78,0,8.54,0.07,9.75,0.21c3.84,0.43,4.55,1.28,5.05,2.42c0.36,0.85,0.43,2.06,0.43,2.56c0,0.57,0.14,0.92,0.57,0.92
	c0.28,0,0.43-0.43,0.5-0.78c0.14-0.85,0.28-3.98,0.36-4.69c0.21-1.99,0.57-2.85,0.57-3.34c0-0.36-0.07-0.64-0.28-0.64
	c-0.36,0-0.64,0.28-1,0.36c-0.57,0.14-1.71,0.28-3.06,0.36c-1.64,0.07-15.79,0.07-16.29,0.07c-0.36,0-4.84-0.21-8.04-0.21
	c-0.78,0-1.14,0.14-1.14,0.57c0,0.29,0.28,0.43,0.57,0.43c0.64,0,1.85,0.07,2.42,0.21c2.35,0.5,2.92,1.64,3.06,4.06
	c0.14,2.28,0.14,4.27,0.14,15.36V207.43L539.12,207.43z M616.29,222.01c0,1.21-0.5,1.99-1.42,2.49c-1.85,1.07-5.55,1.49-8.11,1.49
	c-6.54,0-13.02-2.13-18.64-7.61c-2.49-2.42-7.54-9.67-7.54-19.7c0-8.32,2.92-14.79,7.04-18.07c5.41-4.27,10.74-4.7,15.22-4.7
	c9.17,0,14.94,3.06,16.72,5.76c1.07,1.71,1.42,3.7,1.49,4.69c0.07,0.64,0.14,1.07,0.5,1.07c0.5,0,0.64-0.36,0.64-1.49
	c0-7.11,0.5-9.1,0.5-10.1c0-0.29-0.14-0.57-0.85-0.64c-1.78-0.07-4.27-0.36-5.76-0.71c-1.35-0.28-6.4-1.21-10.88-1.21
	c-5.48,0-12.52,0.5-18.92,4.48c-6.33,3.98-11.88,12.02-11.88,23.4c0,8.89,4.12,16.5,8.46,20.27c7.9,6.9,18,7.61,23.4,7.61
	c4.12,0,10.53-0.78,15.08-3.2c0.85-0.5,0.93-0.64,0.93-3.84v-7.97c0-2.99,0-5.12,0.14-7.4c0.14-2.49,0.71-3.7,2.63-4.05
	c0.85-0.14,1.28-0.21,1.78-0.21c0.28,0,0.57-0.14,0.57-0.43c0-0.43-0.35-0.57-1.14-0.57c-2.13,0-6.61,0.21-6.97,0.21
	c-0.35,0-4.84-0.21-8.04-0.21c-0.78,0-1.14,0.14-1.14,0.57c0,0.29,0.28,0.43,0.57,0.43c0.64,0,1.85,0.07,2.42,0.21
	c2.85,0.78,3.2,1.56,3.2,7.33V222.01L616.29,222.01z M649.79,194.91c0-11.1,0-13.09,0.14-15.36c0.14-2.49,0.71-3.7,2.77-4.06
	c0.85-0.14,1.85-0.21,2.35-0.21c0.28,0,0.57-0.14,0.57-0.43c0-0.43-0.36-0.57-1.14-0.57c-2.13,0-7.33,0.21-7.68,0.21
	c-0.36,0-4.84-0.21-8.04-0.21c-0.78,0-1.14,0.14-1.14,0.57c0,0.29,0.28,0.43,0.57,0.43c0.64,0,1.85,0.07,2.42,0.21
	c2.35,0.5,2.92,1.64,3.06,4.06c0.14,2.28,0.14,4.27,0.14,15.36v12.52c0,6.83,0,12.45-0.36,15.43c-0.28,2.06-0.64,3.63-2.06,3.91
	c-0.64,0.14-1.49,0.28-2.13,0.28c-0.43,0-0.57,0.21-0.57,0.43c0,0.43,0.36,0.57,1.14,0.57c2.13,0,6.33-0.21,6.97-0.21
	c4.12,0,8.82,0.43,19.06,0.43c3.77,0,3.98-0.28,4.48-1.92c0.57-2.06,1.07-6.33,1.07-7.11c0-0.78-0.07-1.07-0.43-1.07
	c-0.43,0-0.57,0.36-0.64,0.92c-0.21,1.35-0.92,3.13-1.85,4.27c-1.71,2.06-4.84,2.13-8.61,2.13c-5.55,0-7.4-0.5-8.53-1.64
	c-1.28-1.28-1.57-5.83-1.57-16.29V194.91L649.79,194.91z M691.9,194.91c0-11.1,0-13.09,0.14-15.36c0.14-2.49,0.71-3.7,2.63-4.06
	c0.85-0.14,1.28-0.21,1.78-0.21c0.28,0,0.57-0.14,0.57-0.43c0-0.43-0.36-0.57-1.14-0.57c-2.13,0-6.62,0.21-6.97,0.21
	c-0.36,0-4.84-0.21-7.18-0.21c-0.78,0-1.14,0.14-1.14,0.57c0,0.29,0.28,0.43,0.57,0.43c0.5,0,1.42,0.07,2.2,0.28
	c1.57,0.36,2.28,1.57,2.42,3.98c0.14,2.28,0.14,4.27,0.14,15.36v12.52c0,6.83,0,12.45-0.35,15.43c-0.28,2.06-0.64,3.63-2.06,3.91
	c-0.64,0.14-1.49,0.28-2.13,0.28c-0.43,0-0.57,0.21-0.57,0.43c0,0.43,0.36,0.57,1.14,0.57c2.13,0,6.61-0.21,6.97-0.21
	c0.35,0,4.84,0.21,8.75,0.21c0.78,0,1.14-0.21,1.14-0.57c0-0.21-0.14-0.43-0.57-0.43c-0.64,0-2.21-0.14-3.2-0.28
	c-2.13-0.28-2.56-1.85-2.77-3.91c-0.36-2.99-0.36-8.61-0.36-15.43V194.91L691.9,194.91z M745.32,229.05c3.84,0,7.68-0.85,10.74-2.99
	c4.91-3.49,6.05-8.89,6.05-11.81c0-5.69-1.99-10.1-10.39-16.72l-1.99-1.56c-6.69-5.48-8.68-7.9-8.68-11.95
	c0-5.19,3.84-8.25,8.75-8.25c6.54,0,8.46,2.99,8.89,3.77c0.43,0.78,0.85,2.7,0.92,3.56c0.07,0.57,0.14,0.92,0.57,0.92
	c0.35,0,0.5-0.5,0.5-1.64c0-4.84,0.28-7.18,0.28-7.54s-0.14-0.5-0.71-0.5s-1.14-0.07-2.49-0.36c-1.78-0.43-3.84-0.71-6.61-0.71
	c-9.03,0-14.72,5.19-14.72,12.8c0,4.84,1.71,9.25,9.25,15.44l3.2,2.63c6.12,5.05,8.18,7.9,8.18,12.8c0,4.55-3.34,9.46-10.17,9.46
	c-4.77,0-9.46-1.99-10.53-7.26c-0.21-1-0.21-1.99-0.21-2.63c0-0.57-0.07-0.78-0.5-0.78c-0.36,0-0.5,0.36-0.57,1.14
	c-0.07,1.14-0.36,3.98-0.36,7.54c0,1.92,0.07,2.21,1.07,2.7C738.7,228.55,741.98,229.05,745.32,229.05L745.32,229.05z
	 M796.03,177.34l8.96,0.14c6.83,0.14,8.46,1.78,8.75,3.91l0.07,0.78c0.07,1,0.21,1.21,0.57,1.21c0.28,0,0.5-0.29,0.5-0.92
	c0-0.78,0.21-5.69,0.21-7.82c0-0.43,0-0.85-0.36-0.85c-0.57,0-2.49,0.71-7.04,0.71h-26.67c-0.85,0-3.56-0.14-5.62-0.35
	c-1.92-0.14-2.63-0.85-3.13-0.85c-0.29,0-0.57,0.92-0.71,1.35c-0.14,0.57-1.56,6.69-1.56,7.4c0,0.43,0.14,0.64,0.35,0.64
	c0.28,0,0.5-0.14,0.71-0.71c0.21-0.5,0.43-1,1.21-2.2c1.14-1.71,2.84-2.21,7.25-2.28l10.53-0.14v30.09c0,6.83,0,12.45-0.36,15.43
	c-0.28,2.06-0.64,3.63-2.06,3.91c-0.64,0.14-1.49,0.28-2.13,0.28c-0.43,0-0.57,0.21-0.57,0.43c0,0.43,0.36,0.57,1.14,0.57
	c2.13,0,6.61-0.21,6.97-0.21c0.35,0,4.84,0.21,8.75,0.21c0.78,0,1.14-0.21,1.14-0.57c0-0.21-0.14-0.43-0.57-0.43
	c-0.64,0-2.21-0.14-3.2-0.28c-2.13-0.28-2.56-1.85-2.77-3.91c-0.36-2.99-0.36-8.61-0.36-15.43V177.34L796.03,177.34z M825.91,205.29
	c0,10.39,2.7,15.36,6.19,18.71c5.05,4.77,12.23,5.05,14.65,5.05c4.2,0,9.53-0.71,14.65-5.26c5.69-5.05,6.54-13.59,6.54-21.27v-7.61
	c0-11.1,0-13.09,0.14-15.36c0.14-2.49,0.71-3.7,2.63-4.06c0.85-0.21,1.28-0.21,1.78-0.21c0.29,0,0.57-0.14,0.57-0.43
	c0-0.43-0.36-0.57-1.14-0.57c-2.13,0-5.48,0.21-5.98,0.21c-0.43,0-4.34-0.21-7.54-0.21c-0.78,0-1.14,0.14-1.14,0.57
	c0,0.29,0.28,0.43,0.57,0.43c0.64,0,1.85,0.07,2.42,0.21c2.35,0.5,2.92,1.64,3.06,4.06c0.14,2.28,0.14,4.27,0.14,15.36v8.89
	c0,7.33-0.85,13.37-4.13,17.43c-2.56,3.06-6.83,5.12-11.17,5.12c-4.06,0-7.26-0.64-10.74-3.91c-3.06-2.92-5.34-7.33-5.34-17.57
	v-9.96c0-11.1,0-13.09,0.14-15.36c0.14-2.49,0.71-3.77,2.63-4.06c0.85-0.14,1.28-0.21,1.78-0.21c0.28,0,0.57-0.14,0.57-0.43
	c0-0.43-0.36-0.57-1.14-0.57c-2.13,0-6.4,0.21-7.04,0.21s-4.98-0.21-8.18-0.21c-0.78,0-1.14,0.14-1.14,0.57
	c0,0.29,0.28,0.43,0.57,0.43c0.64,0,1.85,0.07,2.42,0.21c2.35,0.5,2.92,1.64,3.06,4.06c0.14,2.28,0.14,4.27,0.14,15.36V205.29
	L825.91,205.29z M889.07,207.43c0,6.83,0,12.45-0.35,15.43c-0.29,2.06-0.64,3.63-2.06,3.91c-0.64,0.14-1.49,0.28-2.13,0.28
	c-0.43,0-0.57,0.21-0.57,0.43c0,0.43,0.36,0.57,1.14,0.57c2.13,0,6.61-0.21,6.97-0.21c0.71,0,9.67,0.85,15.79,0.85
	c12.09,0,18.49-4.98,21.55-8.18c3.98-4.2,7.68-11.1,7.68-20.06c0-8.46-3.34-14.37-6.9-18.07c-8.46-8.75-21.48-8.11-28.52-8.11
	c-4.27,0-8.75,0.21-9.6,0.21c-0.36,0-4.84-0.21-8.04-0.21c-0.78,0-1.14,0.14-1.14,0.57c0,0.29,0.28,0.43,0.57,0.43
	c0.64,0,1.85,0.07,2.42,0.21c2.35,0.5,2.92,1.64,3.06,4.06c0.14,2.28,0.14,4.27,0.14,15.36V207.43L889.07,207.43z M895.04,193.77
	c0-5.48,0-12.73,0.07-15.15c0-0.78,0.21-1.14,0.85-1.42c0.57-0.28,3.2-0.5,4.62-0.5c8.46,0,16.57,1,23.26,8.04
	c2.92,3.06,6.83,8.89,6.83,17.93c0,6.54-1.99,13.37-5.69,17c-4.2,4.2-10.31,6.62-16.93,6.62c-8.39,0-11.17-1.49-12.09-2.85
	c-0.57-0.78-0.71-3.63-0.78-5.41c-0.07-1.35-0.14-7.9-0.14-15.43V193.77L895.04,193.77z M959.58,194.91c0-11.1,0-13.09,0.14-15.36
	c0.14-2.49,0.71-3.7,2.63-4.06c0.85-0.14,1.28-0.21,1.78-0.21c0.29,0,0.57-0.14,0.57-0.43c0-0.43-0.36-0.57-1.14-0.57
	c-2.13,0-6.61,0.21-6.97,0.21c-0.35,0-4.84-0.21-7.18-0.21c-0.78,0-1.14,0.14-1.14,0.57c0,0.29,0.29,0.43,0.57,0.43
	c0.5,0,1.42,0.07,2.21,0.28c1.56,0.36,2.28,1.57,2.42,3.98c0.14,2.28,0.14,4.27,0.14,15.36v12.52c0,6.83,0,12.45-0.36,15.43
	c-0.28,2.06-0.64,3.63-2.06,3.91c-0.64,0.14-1.49,0.28-2.13,0.28c-0.43,0-0.57,0.21-0.57,0.43c0,0.43,0.36,0.57,1.14,0.57
	c2.13,0,6.62-0.21,6.97-0.21c0.36,0,4.84,0.21,8.75,0.21c0.78,0,1.14-0.21,1.14-0.57c0-0.21-0.14-0.43-0.57-0.43
	c-0.64,0-2.21-0.14-3.2-0.28c-2.13-0.28-2.56-1.85-2.77-3.91c-0.36-2.99-0.36-8.61-0.36-15.43V194.91L959.58,194.91z"/>
<path d="M470.94,118.68c0,10.96,2.85,16.22,6.53,19.75c5.33,5.03,12.91,5.33,15.47,5.33c4.43,0,10.06-0.75,15.47-5.56
	c6.01-5.33,6.91-14.34,6.91-22.45v-8.03c0-11.71,0-13.82,0.15-16.22c0.15-2.63,0.75-3.9,2.78-4.28c0.9-0.23,1.35-0.23,1.88-0.23
	c0.3,0,0.6-0.15,0.6-0.45c0-0.45-0.38-0.6-1.2-0.6c-2.25,0-5.78,0.23-6.31,0.23c-0.45,0-4.58-0.23-7.96-0.23
	c-0.83,0-1.2,0.15-1.2,0.6c0,0.3,0.3,0.45,0.6,0.45c0.68,0,1.95,0.07,2.55,0.23c2.48,0.53,3.08,1.73,3.23,4.28
	c0.15,2.4,0.15,4.51,0.15,16.22v9.39c0,7.73-0.9,14.12-4.35,18.39c-2.7,3.23-7.21,5.4-11.79,5.4c-4.28,0-7.66-0.67-11.34-4.13
	c-3.23-3.08-5.63-7.73-5.63-18.55v-10.51c0-11.71,0-13.82,0.15-16.22c0.15-2.63,0.75-3.98,2.78-4.28c0.9-0.15,1.35-0.23,1.88-0.23
	c0.3,0,0.6-0.15,0.6-0.45c0-0.45-0.38-0.6-1.2-0.6c-2.25,0-6.76,0.23-7.43,0.23c-0.68,0-5.26-0.23-8.63-0.23
	c-0.83,0-1.2,0.15-1.2,0.6c0,0.3,0.3,0.45,0.6,0.45c0.68,0,1.95,0.07,2.55,0.23c2.48,0.53,3.08,1.73,3.23,4.28
	c0.15,2.4,0.15,4.51,0.15,16.22V118.68L470.94,118.68z M538.66,96.53c2.4,2.7,10.89,12.16,19.6,21.55
	c7.96,8.56,18.77,19.6,19.6,20.35c3.98,3.98,4.88,4.8,5.48,4.8c0.53,0,0.68-0.38,0.68-5.33l0.15-44c0-4.51,0.3-6.16,2.78-6.68
	c0.9-0.23,1.43-0.23,1.8-0.23c0.53,0,0.83-0.23,0.83-0.52c0-0.45-0.53-0.53-1.35-0.53c-3.08,0-5.56,0.23-6.38,0.23
	c-0.83,0-4.43-0.23-7.81-0.23c-0.9,0-1.5,0.07-1.5,0.53c0,0.3,0.08,0.52,0.6,0.52c0.6,0,2.33,0.07,3.68,0.38
	c2.33,0.6,2.85,2.25,2.93,7.13l0.83,38.14c-2.4-2.48-10.59-11.64-18.02-19.6c-11.56-12.39-22.75-24.48-23.88-25.75
	c-0.75-0.75-2.03-2.4-2.63-2.4c-0.6,0-0.83,0.83-0.83,3.75l-0.07,43.02c0,6.83-0.38,9.01-2.25,9.54c-1.13,0.38-2.48,0.45-3.08,0.45
	c-0.38,0-0.6,0.15-0.6,0.45c0,0.52,0.45,0.6,1.2,0.6c3.38,0,6.53-0.23,7.21-0.23c0.67,0,3.68,0.23,7.96,0.23
	c0.9,0,1.35-0.15,1.35-0.6c0-0.3-0.22-0.45-0.6-0.45c-0.68,0-2.33-0.08-3.75-0.45c-2.03-0.6-2.78-2.55-2.93-8.71L538.66,96.53
	L538.66,96.53z M615.01,107.72c0-11.71,0-13.82,0.15-16.22c0.15-2.63,0.75-3.9,2.78-4.28c0.9-0.15,1.35-0.23,1.88-0.23
	c0.3,0,0.6-0.15,0.6-0.45c0-0.45-0.38-0.6-1.2-0.6c-2.25,0-6.98,0.23-7.36,0.23c-0.38,0-5.11-0.23-7.58-0.23
	c-0.83,0-1.2,0.15-1.2,0.6c0,0.3,0.3,0.45,0.6,0.45c0.53,0,1.5,0.07,2.33,0.3c1.65,0.38,2.4,1.65,2.55,4.21
	c0.15,2.4,0.15,4.51,0.15,16.22v13.21c0,7.21,0,13.14-0.38,16.29c-0.3,2.18-0.68,3.83-2.18,4.13c-0.68,0.15-1.58,0.3-2.25,0.3
	c-0.45,0-0.6,0.23-0.6,0.45c0,0.45,0.38,0.6,1.2,0.6c2.25,0,6.98-0.23,7.36-0.23c0.38,0,5.11,0.23,9.23,0.23
	c0.83,0,1.2-0.23,1.2-0.6c0-0.23-0.15-0.45-0.6-0.45c-0.68,0-2.33-0.15-3.38-0.3c-2.25-0.3-2.7-1.95-2.93-4.13
	c-0.38-3.15-0.38-9.08-0.38-16.29V107.72L615.01,107.72z M643.62,95.11c-1.13-2.93-2.03-5.26-2.03-6.23c0-0.52,0.15-1.13,0.98-1.5
	c0.67-0.3,2.03-0.38,2.85-0.38c0.52,0,0.75-0.15,0.75-0.52c0-0.38-0.67-0.53-2.03-0.53c-2.85,0-6.23,0.23-6.98,0.23
	c-0.9,0-5.18-0.23-8.79-0.23c-1.2,0-1.95,0.07-1.95,0.53c0,0.3,0.15,0.52,0.6,0.52c0.45,0,1.73,0,2.85,0.3
	c2.63,0.75,3.75,1.58,5.41,5.78l18.39,46.02c1.43,3.6,1.8,4.65,2.7,4.65c0.75,0,1.05-1.2,3.15-5.71c1.73-3.68,5.11-11.79,9.68-22.75
	c3.83-9.24,7.58-18.24,8.41-20.35c2.03-5.11,3.15-6.38,4.13-7.06c1.43-0.9,3.08-0.9,3.6-0.9c0.6,0,0.9-0.15,0.9-0.52
	c0-0.38-0.45-0.53-1.28-0.53c-2.18,0-5.41,0.23-5.86,0.23c-0.9,0-4.35-0.23-7.36-0.23c-1.2,0-1.65,0.15-1.65,0.6
	c0,0.38,0.38,0.45,0.83,0.45c0.83,0,1.95,0,2.85,0.3c0.75,0.38,0.98,1.13,0.98,1.73c0,0.68-0.3,1.73-0.67,2.85
	c-1.65,5.41-11.71,31.61-16.07,41.67L643.62,95.11L643.62,95.11z M697.45,120.94c0,7.21,0,13.14-0.38,16.29
	c-0.3,2.18-0.68,3.83-2.18,4.13c-0.68,0.15-1.58,0.3-2.25,0.3c-0.45,0-0.6,0.23-0.6,0.45c0,0.45,0.38,0.6,1.2,0.6
	c2.25,0,6.98-0.23,7.36-0.23c2.18,0,7.21,0.45,18.54,0.45c2.93,0,3.53,0,4.05-1.95c0.38-1.58,0.98-6.68,0.98-7.28
	c0-0.53,0-1.13-0.45-1.13c-0.38,0-0.52,0.3-0.67,1.13c-0.53,3.08-1.43,4.58-3.38,5.41c-1.95,0.83-5.26,0.83-7.21,0.83
	c-7.36,0-8.48-0.98-8.71-6.16c-0.08-1.58,0-10.29,0-12.84v-6.61c0-0.3,0.15-0.53,0.52-0.53c1.28,0,8.71,0.15,10.74,0.38
	c2.93,0.3,3.6,1.58,3.9,2.63c0.3,0.98,0.3,1.73,0.3,2.48c0,0.38,0.15,0.68,0.53,0.68c0.53,0,0.53-0.83,0.53-1.43
	c0-0.52,0.15-3.3,0.3-4.8c0.22-2.48,0.6-3.75,0.6-4.21c0-0.45-0.15-0.6-0.38-0.6c-0.3,0-0.6,0.38-1.13,0.98
	c-0.68,0.75-1.73,0.9-3.53,1.05c-1.73,0.15-10.96,0.15-11.94,0.15c-0.38,0-0.45-0.22-0.45-0.75V89.63c0-0.53,0.15-0.75,0.45-0.75
	c0.83,0,9.01,0.08,10.29,0.23c4.05,0.45,4.81,1.35,5.33,2.55c0.38,0.9,0.45,2.18,0.45,2.7c0,0.6,0.15,0.98,0.6,0.98
	c0.3,0,0.45-0.45,0.53-0.83c0.15-0.9,0.3-4.2,0.38-4.95c0.23-2.1,0.6-3,0.6-3.53c0-0.38-0.08-0.68-0.3-0.68
	c-0.38,0-0.68,0.3-1.05,0.38c-0.6,0.15-1.8,0.3-3.23,0.38c-1.73,0.08-16.67,0.08-17.19,0.08c-0.38,0-5.1-0.23-8.48-0.23
	c-0.83,0-1.2,0.15-1.2,0.6c0,0.3,0.3,0.45,0.6,0.45c0.67,0,1.95,0.07,2.55,0.23c2.48,0.53,3.08,1.73,3.23,4.28
	c0.15,2.4,0.15,4.51,0.15,16.22V120.94L697.45,120.94z M743.25,120.94c0,7.21,0,13.14-0.38,16.29c-0.3,2.18-0.68,3.83-2.18,4.13
	c-0.68,0.15-1.58,0.3-2.25,0.3c-0.45,0-0.6,0.23-0.6,0.45c0,0.45,0.38,0.6,1.2,0.6c2.25,0,6.98-0.23,7.06-0.23
	c0.38,0,5.11,0.23,9.23,0.23c0.83,0,1.2-0.23,1.2-0.6c0-0.23-0.15-0.45-0.6-0.45c-0.68,0-2.33-0.15-3.38-0.3
	c-2.25-0.3-2.7-1.95-2.93-4.13c-0.38-3.15-0.38-9.08-0.38-16.29v-1.8c0-0.38,0.15-0.6,0.52-0.6l9.24,0.15
	c0.45,0,0.68,0.15,0.98,0.45c1.5,1.95,5.03,6.98,8.18,11.11c4.28,5.63,6.91,9.31,10.14,11.04c1.95,1.05,3.83,1.43,8.03,1.43h5.33
	c1.35,0,1.8-0.15,1.8-0.6c0-0.23-0.3-0.45-0.68-0.45c-0.45,0-1.5,0-2.93-0.22c-1.88-0.3-5.11-1.13-9.16-5.41
	c-4.35-4.66-9.46-11.34-15.62-19.22c6.76-6.23,9.09-11.79,9.09-17.34c0-5.18-3.3-8.86-5.18-10.21c-3.98-2.85-9.01-3.3-13.74-3.3
	c-2.33,0-8.03,0.23-8.86,0.23c-0.38,0-5.11-0.23-8.48-0.23c-0.83,0-1.2,0.15-1.2,0.6c0,0.3,0.3,0.45,0.6,0.45
	c0.68,0,1.95,0.07,2.55,0.23c2.48,0.53,3.08,1.73,3.23,4.28c0.15,2.4,0.15,4.51,0.15,16.22V120.94L743.25,120.94z M749.26,89.7
	c0-0.45,0.22-0.75,0.6-0.9c0.75-0.23,2.78-0.45,5.03-0.45c8.03,0,12.99,5.63,12.99,15.02c0,5.71-1.95,9.76-4.58,11.56
	c-1.73,1.2-3.83,1.43-5.63,1.43c-3.3,0-6.76-0.53-7.88-1.2c-0.38-0.23-0.52-0.53-0.52-0.9V89.7L749.26,89.7z M804.38,143.76
	c4.05,0,8.11-0.9,11.34-3.15c5.18-3.68,6.38-9.38,6.38-12.46c0-6.01-2.1-10.66-10.96-17.64l-2.1-1.65
	c-7.06-5.78-9.16-8.33-9.16-12.61c0-5.48,4.05-8.71,9.23-8.71c6.91,0,8.93,3.15,9.39,3.98c0.45,0.83,0.9,2.85,0.98,3.75
	c0.07,0.6,0.15,0.98,0.6,0.98c0.38,0,0.53-0.52,0.53-1.73c0-5.11,0.3-7.58,0.3-7.96c0-0.38-0.15-0.53-0.75-0.53
	c-0.6,0-1.2-0.07-2.63-0.38c-1.88-0.45-4.05-0.75-6.98-0.75C801,84.9,795,90.38,795,98.41c0,5.11,1.8,9.76,9.76,16.29l3.38,2.78
	c6.46,5.33,8.63,8.33,8.63,13.51c0,4.8-3.53,9.99-10.74,9.99c-5.03,0-9.99-2.1-11.11-7.66c-0.23-1.05-0.23-2.1-0.23-2.78
	c0-0.6-0.08-0.83-0.53-0.83c-0.38,0-0.53,0.38-0.6,1.2c-0.08,1.2-0.38,4.2-0.38,7.96c0,2.03,0.08,2.33,1.13,2.85
	C797.4,143.24,800.85,143.76,804.38,143.76L804.38,143.76z M848.23,107.72c0-11.71,0-13.82,0.15-16.22c0.15-2.63,0.75-3.9,2.78-4.28
	c0.9-0.15,1.35-0.23,1.88-0.23c0.3,0,0.6-0.15,0.6-0.45c0-0.45-0.38-0.6-1.2-0.6c-2.25,0-6.98,0.23-7.36,0.23
	c-0.38,0-5.11-0.23-7.58-0.23c-0.83,0-1.2,0.15-1.2,0.6c0,0.3,0.3,0.45,0.6,0.45c0.53,0,1.5,0.07,2.33,0.3
	c1.65,0.38,2.4,1.65,2.55,4.21c0.15,2.4,0.15,4.51,0.15,16.22v13.21c0,7.21,0,13.14-0.38,16.29c-0.3,2.18-0.68,3.83-2.18,4.13
	c-0.68,0.15-1.58,0.3-2.25,0.3c-0.45,0-0.6,0.23-0.6,0.45c0,0.45,0.38,0.6,1.2,0.6c2.25,0,6.98-0.23,7.36-0.23
	c0.38,0,5.11,0.23,9.23,0.23c0.83,0,1.2-0.23,1.2-0.6c0-0.23-0.15-0.45-0.6-0.45c-0.68,0-2.33-0.15-3.38-0.3
	c-2.25-0.3-2.7-1.95-2.93-4.13c-0.38-3.15-0.38-9.08-0.38-16.29V107.72L848.23,107.72z M890.95,89.18l9.46,0.15
	c7.21,0.15,8.94,1.88,9.24,4.13l0.08,0.83c0.08,1.05,0.22,1.28,0.6,1.28c0.3,0,0.53-0.3,0.53-0.98c0-0.83,0.23-6.01,0.23-8.26
	c0-0.45,0-0.9-0.38-0.9c-0.6,0-2.63,0.75-7.43,0.75h-28.15c-0.9,0-3.75-0.15-5.93-0.38c-2.03-0.15-2.78-0.9-3.3-0.9
	c-0.3,0-0.6,0.98-0.75,1.43c-0.15,0.6-1.65,7.06-1.65,7.81c0,0.45,0.15,0.68,0.38,0.68c0.3,0,0.53-0.15,0.75-0.75
	c0.23-0.53,0.45-1.05,1.28-2.33c1.2-1.8,3-2.33,7.66-2.4l11.11-0.15v31.76c0,7.21,0,13.14-0.38,16.29c-0.3,2.18-0.68,3.83-2.18,4.13
	c-0.67,0.15-1.58,0.3-2.25,0.3c-0.45,0-0.6,0.23-0.6,0.45c0,0.45,0.38,0.6,1.2,0.6c2.25,0,6.98-0.23,7.36-0.23
	c0.38,0,5.11,0.23,9.24,0.23c0.83,0,1.2-0.23,1.2-0.6c0-0.23-0.15-0.45-0.6-0.45c-0.68,0-2.33-0.15-3.38-0.3
	c-2.25-0.3-2.7-1.95-2.93-4.13c-0.38-3.15-0.38-9.08-0.38-16.29V89.18L890.95,89.18z M943.58,80.17c0.38,0,0.68-0.15,0.68-0.38
	c0-0.3-0.68-0.53-1.43-1.05c-3.08-1.95-6.76-4.88-7.36-5.48c-0.68-0.68-0.75-1.2-1.13-1.2c-0.3,0-0.6,0.15-1.2,0.38
	c-0.9,0.38-2.93,0.98-4.5,1.43c-0.52,0.15-0.83,0.23-0.83,0.6c0,0.38,0.6,0.68,2.18,1.28C931.19,76.19,942.23,80.17,943.58,80.17
	L943.58,80.17z M920.61,134.45c-1.35,3.75-2.85,6.61-6.31,7.06c-0.6,0.07-1.65,0.15-2.18,0.15c-0.38,0-0.67,0.15-0.67,0.45
	c0,0.45,0.45,0.6,1.43,0.6c3.53,0,7.66-0.23,8.48-0.23c0.83,0,4.05,0.23,5.86,0.23c0.67,0,1.13-0.15,1.13-0.6
	c0-0.3-0.22-0.45-0.75-0.45h-0.75c-1.28,0-2.85-0.68-2.85-2.18c0-1.35,0.38-3.15,1.05-5.03l4.5-13.29c0.15-0.38,0.38-0.6,0.75-0.6
	h16.14c0.38,0,0.53,0.15,0.68,0.45l6.98,18.47c0.45,1.2,0,1.88-0.45,2.03c-0.3,0.07-0.53,0.23-0.53,0.53c0,0.45,0.83,0.45,2.25,0.52
	c5.18,0.15,10.66,0.15,11.79,0.15c0.83,0,1.5-0.15,1.5-0.6c0-0.38-0.3-0.45-0.75-0.45c-0.75,0-1.88-0.08-3-0.45
	c-1.58-0.45-3.75-1.65-6.46-8.33c-4.58-11.41-16.37-42.42-17.49-45.27c-0.9-2.33-1.2-2.7-1.65-2.7c-0.45,0-0.75,0.45-1.65,2.93
	L920.61,134.45L920.61,134.45z M931.12,117.86c-0.23,0-0.38-0.15-0.23-0.52l6.61-20.27c0.38-1.13,0.75-1.13,1.13,0l7.13,20.27
	c0.07,0.3,0.07,0.52-0.3,0.52H931.12L931.12,117.86z"/>
<path class="st0" d="M152.03,22.89c0,0,6.93-4.91,17.03-6.64c10.1-1.73,20.79-1.73,28.87,0.87c8.08,2.6,16.74,6.06,19.34,8.08
	c2.6,2.02,2.6,4.33,2.6,4.33l-6.93,14.43c0,0-3.46,5.49-3.17,6.35c0.29,0.87,1.15,5.49,1.15,5.49s2.02,5.77,2.02,7.22
	c0,1.44-4.62,20.5-6.64,24.54c-2.02,4.04-2.02,10.39-0.29,12.7c1.73,2.31,9.24,5.48,14.14,7.22c4.91,1.73,27.14,12.41,30.02,15.88
	c2.89,3.46,23.38,35.22,24.83,49.37c1.44,14.14,2.31,8.37,2.31,8.37l1.44,8.08c0,0,3.46,5.77,4.91,8.08
	c1.44,2.31,1.44,19.92,1.44,19.92l7.79,19.92l6.64,12.12c0,0,4.04,8.08,3.75,10.1c-0.29,2.02-4.91,9.53-4.91,9.53
	s1.44,8.08,1.15,10.39c-0.29,2.31-3.46,9.82-6.06,11.84c-2.6,2.02-5.48,6.06-5.48,6.06s0.58,8.08,0.58,9.82
	c0,1.73-1.44,12.99-6.64,17.9c-1.13,1.07-1.15,7.22-1.15,7.22s-15.01,15.01-29.73,21.94c-14.72,6.93-31.76,14.15-49.37,15.3
	c-17.61,1.15-44.46,0.29-61.49-6.93c-17.03-7.22-32.33-14.15-43.59-24.54c-11.26-10.39-5.2-5.2-5.2-5.2l-2.02-28.58l-2.02-26.27
	c0,0-7.22-4.04-10.39-10.39s-0.58-12.7,1.73-18.19c2.31-5.48,2.6-15.3,2.89-18.19c0.29-2.89-1.44-15.59,0.29-27.43
	c1.73-11.84,3.75-29.16,9.24-40.99c5.48-11.84,12.12-25.12,17.32-29.74c5.2-4.62,12.7-9.24,12.7-9.24s-4.04-4.33-4.04-7.22
	c0-2.89,1.15-8.95,2.31-10.39c1.15-1.44,3.18-6.64,3.18-6.64s6.93,3.18,8.66,4.04c1.73,0.87,3.75,2.02,5.77,4.04
	c2.02,2.02,3.18,3.46,3.75,3.46c0.58,0,8.95-6.93,8.95-6.93l8.37-4.91V84.09l-2.6-17.61l2.02-13.86l-1.44-13.86L152.03,22.89
	L152.03,22.89z"/>
<path d="M127.79,101.74l-0.98-2.09c9.82-4.59,20.17-8.03,30.76-10.21l0.47,2.26C147.62,93.85,137.44,97.23,127.79,101.74z"/>
<path d="M31.3,292.77c-0.31,0.12-0.43,0.08-0.49-0.1c-0.23-0.6-1.65-4.37-1.85-5.31c-0.24-1.17,0.36-2,0.91-2.42
	c0.48-0.34,0.99-0.62,1.3-0.73c0.31-0.12,0.6-0.31,0.51-0.52c-0.13-0.36-0.58-0.19-0.98-0.04c-0.31,0.12-2.38,0.82-3.3,1.08
	c-1.42,0.41-2.6,0.65-2.86,0.76c-0.27,0.1-0.37,0.22-0.32,0.36c0.08,0.21,0.29,0.22,0.62,0.29c0.71,0.14,1.08,0.57,1.38,1.23
	c0.23,0.48,0.42,0.98,0.65,1.58l1.76,4.53c0.08,0.21-0.04,0.3-0.31,0.4l-11.11,4.19c-0.49,0.19-0.66,0.13-0.74-0.09l-1.93-5.52
	c-0.47-1.37-0.08-2.37,0.45-2.85c0.54-0.45,1.25-0.72,1.61-0.85c0.48-0.22,0.67-0.38,0.58-0.62s-0.39-0.22-0.76-0.12
	c-0.56,0.13-3.21,1.05-3.67,1.18c-1.2,0.33-1.8,0.35-2.11,0.47c-0.22,0.08-0.36,0.26-0.31,0.4c0.07,0.18,0.31,0.29,0.48,0.47
	c0.27,0.31,0.43,0.73,0.73,1.39c0.35,0.8,3.08,8.01,3.59,9.37c0.39,1.03,1.1,3.32,1.8,5.17c0.2,0.53,0.4,0.78,0.75,0.65
	c0.27-0.1,0.26-0.38,0.13-0.74c-0.19-0.5-0.37-1.12-0.39-1.44c-0.13-1.29,0.47-1.84,1.96-2.48c1.39-0.61,2.64-1.08,9.39-3.63
	l7.82-2.95c4.26-1.61,7.6-2.87,9.53-3.39c1.34-0.34,2.39-0.54,2.83,0.11c0.21,0.29,0.46,0.68,0.66,1.21
	c0.15,0.39,0.33,0.48,0.56,0.4c0.36-0.13,0.35-0.42,0.16-0.91c-0.51-1.35-1.49-3.54-1.84-4.46c-0.35-0.92-1.06-3.21-1.91-5.45
	c-0.2-0.53-0.43-0.73-0.74-0.61c-0.22,0.08-0.3,0.28-0.13,0.74c0.19,0.5,0.39,1.31,0.49,1.84c0.22,1.13-0.67,1.72-1.92,2.31
	c-1.8,0.88-5.13,2.14-9.4,3.75L31.3,292.77L31.3,292.77z"/>
<path d="M19.86,272.27c-7.03,1.63-8.33,1.93-9.82,2.2c-1.64,0.3-2.49,0.19-2.95-0.76c-0.2-0.42-0.38-1.01-0.47-1.41
	c-0.1-0.44-0.25-0.64-0.57-0.57c-0.32,0.08-0.36,0.36-0.24,0.87c0.33,1.44,1.1,4.11,1.3,5c0.23,1,0.63,3.36,1.03,5.1
	c0.13,0.56,0.28,0.79,0.6,0.72c0.32-0.08,0.36-0.32,0.27-0.72c-0.11-0.48-0.17-0.94-0.14-1.25c0.04-1.3,0.71-1.76,2.27-2.2
	c1.46-0.42,2.76-0.72,9.79-2.35l8.14-1.88c4.26-0.99,7.91-1.83,9.9-2.1c1.38-0.16,2.44-0.21,2.79,0.48
	c0.17,0.31,0.36,0.73,0.49,1.29c0.1,0.44,0.28,0.56,0.51,0.51c0.32-0.08,0.4-0.37,0.29-0.85c-0.34-1.48-1.02-3.78-1.22-4.63
	c-0.69-3-0.98-5.51-2.22-10.83c-0.45-1.92-0.72-2.06-1.79-2.04c-1.41,0.01-4.94,0.56-5.45,0.68c-0.56,0.13-0.78,0.22-0.72,0.48
	c0.07,0.3,0.36,0.31,0.79,0.25c0.9-0.13,2.29,0.01,3,0.32c1.46,0.64,1.84,2.07,2.3,4.03c0.67,2.89,0.57,3.92,0.02,4.71
	c-0.65,0.97-3.84,1.71-9.77,3.08L19.86,272.27L19.86,272.27z"/>
<path d="M37.22,239.21c-0.54-9.63-9.45-15.23-20.31-14.62c-10.86,0.6-17.4,6.86-16.88,16.31c0.63,11.38,11.35,15.08,19.46,14.63
	C27.88,255.06,37.83,250.1,37.22,239.21L37.22,239.21z M34.76,237.75c0.4,7.28-7.18,12.08-17.04,12.63
	c-11.81,0.66-15.12-4.14-15.36-8.51c-0.35-6.22,5.97-11.48,16.59-12.07C32.66,229.04,34.61,235.1,34.76,237.75L34.76,237.75z"/>
<path d="M23.24,215.32c4.32,0.67,8.02,1.25,9.97,1.74c1.34,0.36,2.34,0.71,2.41,1.49c0.04,0.35,0.07,0.82-0.02,1.38
	c-0.07,0.45,0.05,0.62,0.28,0.66c0.33,0.05,0.51-0.19,0.59-0.68c0.23-1.5,0.46-3.89,0.57-4.6c0.09-0.56,0.66-3.32,1-5.5
	c0.08-0.49-0.02-0.77-0.35-0.82c-0.23-0.04-0.4,0.09-0.45,0.39c-0.07,0.45-0.29,1.26-0.47,1.81c-0.36,1.1-1.43,1.16-2.81,1.06
	c-2-0.12-5.71-0.69-10.07-1.37l-0.66-0.1c-0.28-0.04-0.36-0.17-0.33-0.36l0.6-3.25c0.04-0.26,0.12-0.48,0.43-0.62
	c0.78-0.38,4.24-1.61,7.05-2.71c3.94-1.54,6.37-2.62,7.7-4.07c0.81-0.87,1.19-1.78,1.52-3.88l0.55-3.57
	c0.07-0.45,0.02-0.73-0.36-0.79c-0.23-0.04-0.4,0.09-0.45,0.39c-0.05,0.3-0.15,0.63-0.3,1.03c-0.23,0.54-0.8,2.03-3.84,3.71
	c-3.25,1.76-7.83,3.71-13.61,6.23c-3.26-4.39-6.27-6.05-9.74-6.59c-3.14-0.49-5.77,0.64-6.82,1.55c-2.05,1.76-2.72,4.23-3.09,6.59
	c-0.18,1.16-0.48,4.04-0.68,5.31c-0.12,0.79-0.63,3.13-0.94,5.12c-0.09,0.56-0.03,0.84,0.29,0.89c0.33,0.05,0.46-0.16,0.52-0.57
	c0.08-0.52,0.23-1.16,0.37-1.44c0.52-1.19,1.32-1.37,2.93-1.2c1.51,0.16,2.83,0.36,9.96,1.47L23.24,215.32L23.24,215.32z
	 M5.11,207.97c-0.38-0.06-0.55-0.16-0.6-0.44c-0.08-0.4-0.02-1.08,0.12-2.02c0.34-2.21,2.82-5.44,9.48-4.41
	c3.85,0.6,5.84,2.02,6.69,3.31c0.51,0.77,0.62,1.29,0.38,2.79c-0.15,0.94-0.46,2.04-0.91,2.78c-0.18,0.24-0.38,0.29-0.9,0.21
	L5.11,207.97L5.11,207.97z"/>
<path d="M29.53,181.82c4.14,1.39,7.7,2.59,9.52,3.41c1.26,0.58,2.19,1.1,2.12,1.88c-0.02,0.35-0.07,0.82-0.26,1.36
	c-0.15,0.43-0.06,0.62,0.17,0.7c0.32,0.11,0.53-0.1,0.69-0.57c0.48-1.44,1.11-3.75,1.39-4.58c0.72-2.12,1.8-4.45,3.63-9.88
	c0.46-1.37,0.57-1.69-0.52-2.34c-0.84-0.48-3.8-1.8-4.84-2.15c-0.45-0.15-0.81-0.27-0.91,0.02c-0.08,0.25,0.07,0.38,0.54,0.62
	c1.76,0.87,2.56,1.62,2.78,2.74c0.22,1.12-0.28,2.63-0.6,3.57c-1.24,3.67-2.11,4.02-5.23,3.05c-1.32-0.4-5.45-1.83-6.98-2.35
	l-3.56-1.2c-0.27-0.09-0.44-0.19-0.38-0.37c0.29-0.86,1.54-4.41,1.86-5.07c0.63-1.27,1.47-1.55,2.43-1.42
	c0.62,0.09,1.21,0.29,1.67,0.4c0.22,0.07,0.43,0.06,0.51-0.19c0.11-0.32-0.39-0.49-0.75-0.61c-0.32-0.11-2.09-0.78-2.97-1.16
	c-2.26-0.88-2.92-1.3-3.19-1.39c-0.27-0.09-0.4-0.01-0.44,0.13c-0.06,0.18,0.12,0.4,0.39,0.77c0.34,0.48,0.29,1.06,0.09,1.95
	c-0.19,0.86-1.58,5-1.85,5.79c-0.07,0.22-0.26,0.19-0.58,0.09l-11.39-3.83c-0.32-0.11-0.43-0.22-0.37-0.4
	c0.24-0.72,1.6-4.47,1.9-5.05c0.88-1.71,1.54-1.89,2.43-1.87c0.6,0,1.38,0.22,1.69,0.33c0.4,0.14,0.65,0.14,0.74-0.11
	c0.08-0.25-0.16-0.42-0.37-0.53c-0.52-0.25-2.47-0.99-2.91-1.18c-2.03-0.81-2.51-1.17-2.83-1.27c-0.23-0.07-0.42-0.1-0.48,0.08
	c-0.06,0.18,0,0.44-0.01,0.64c-0.01,0.32-0.11,0.92-0.25,1.64c-0.19,0.7-2.6,7.86-2.98,9.02c-0.34,1.01-1.24,3.23-1.88,5.14
	c-0.18,0.54-0.18,0.82,0.14,0.93c0.32,0.11,0.48-0.08,0.61-0.48c0.17-0.5,0.42-1.1,0.61-1.36c0.71-1.08,1.53-1.13,3.09-0.68
	c1.46,0.41,2.72,0.84,9.56,3.14L29.53,181.82L29.53,181.82z"/>
<path d="M26.9,151.76l0.05-0.1c1.12-0.18,8.34-1.08,14.82-2.3c6.18-1.17,13.96-2.5,17.6-3.26c0.66-0.12,1.33-0.27,1.53-0.64
	c0.16-0.3-0.14-0.64-1.06-1.13l-26.2-14.55c-2.32-1.29-3.06-2.03-2.89-3.15c0.09-0.47,0.23-0.74,0.41-1.07
	c0.22-0.4,0.2-0.67-0.05-0.8c-0.33-0.18-0.56,0.13-0.79,0.57c-0.88,1.64-1.44,2.98-1.64,3.35c-0.38,0.7-1.37,2.24-2.3,3.98
	c-0.27,0.5-0.43,0.89-0.09,1.07c0.25,0.13,0.45,0.07,0.66-0.33c0.25-0.47,0.68-1.27,1.2-1.64c0.85-0.58,1.81-0.45,4.38,0.88
	l18.96,9.76l-0.09,0.17c-0.97,0.21-9.43,1.49-13.49,2.24c-8.69,1.63-18.24,3.05-19,3.16c-1.06,0.16-1.76,0.17-1.96,0.54
	c-0.18,0.34,0.35,0.75,1.19,1.2l24.6,13.61c3.62,1.99,4.76,2.77,4.63,3.82c-0.08,0.56-0.37,1.18-0.6,1.62
	c-0.18,0.33-0.2,0.58,0.05,0.71c0.38,0.2,0.58-0.08,0.81-0.51c0.93-1.74,1.65-3.38,1.82-3.68c0.34-0.64,1.19-1.91,2.35-4.08
	c0.25-0.47,0.33-0.81,0-0.99c-0.25-0.14-0.44,0.02-0.64,0.39c-0.29,0.54-0.67,1.15-1.23,1.58c-0.65,0.51-1.97,0.36-5.27-1.32
	L26.9,151.76L26.9,151.76z"/>
<path d="M60.47,122.99c3.35,2.8,6.23,5.2,7.64,6.62c0.98,0.97,1.64,1.81,1.3,2.52c-0.15,0.32-0.37,0.73-0.73,1.17
	c-0.29,0.35-0.28,0.56-0.1,0.71c0.26,0.21,0.54,0.1,0.85-0.28c0.97-1.17,2.4-3.1,2.96-3.77c0.68-0.82,2.32-2.56,3.93-4.49
	c0.27-0.32,0.35-0.64,0.1-0.86c-0.18-0.15-0.41-0.1-0.68,0.22c-0.37,0.44-0.97,1.02-1.39,1.37c-0.88,0.75-1.82,0.26-2.92-0.51
	c-1.69-1.16-4.57-3.57-7.92-6.36l-14.95-12.47l3.18-3.58c2.24-2.54,3.92-2.47,4.91-1.74l0.43,0.3c0.57,0.43,0.8,0.52,1,0.29
	c0.15-0.17-0.02-0.42-0.36-0.75c-0.95-0.79-3.39-2.98-4.16-3.62c-0.55-0.46-0.79-0.61-0.96-0.4c-0.19,0.23-0.41,1.24-1.97,3.1
	l-9.64,11.55c-0.8,0.96-1.8,2.01-2.62,2.76c-0.68,0.67-1.29,0.66-1.48,0.89c-0.15,0.18,0,0.45,0.4,0.93c0.24,0.3,3.1,3.62,3.68,4.11
	c0.4,0.33,0.63,0.43,0.8,0.23c0.15-0.17,0.07-0.39-0.17-0.69c-0.24-0.3-0.56-0.81-0.86-1.56c-0.44-1.11-0.04-1.96,1.3-3.71
	l3.48-4.47L60.47,122.99L60.47,122.99z"/>
<path d="M75.42,106.78c3.08,3.42,5.59,6.21,6.78,7.82c0.84,1.1,1.21,1.85,0.77,2.5c-0.19,0.3-0.47,0.68-0.89,1.06
	c-0.34,0.3-0.36,0.51-0.2,0.69c0.22,0.25,0.52,0.17,0.88-0.15c1.13-1.02,2.81-2.72,3.46-3.31c0.76-0.69,2.64-2.18,4.5-3.86
	c0.31-0.28,0.44-0.59,0.22-0.84c-0.16-0.18-0.39-0.15-0.71,0.12c-0.42,0.38-1.11,0.87-1.57,1.15c-0.97,0.62-1.74,0.16-2.69-0.71
	c-1.48-1.42-3.99-4.21-7.07-7.63l-5.59-6.21c-4.83-5.37-5.72-6.36-6.67-7.54c-1.05-1.29-1.37-2.09-0.76-2.95
	c0.28-0.38,0.47-0.61,0.75-0.87c0.28-0.25,0.39-0.48,0.13-0.76c-0.19-0.21-0.48-0.08-0.85,0.25c-1.07,0.96-2.64,2.57-3.35,3.2
	c-0.82,0.74-2.69,2.23-3.77,3.2c-0.45,0.41-0.61,0.68-0.42,0.89c0.25,0.28,0.49,0.2,0.77-0.05c0.34-0.31,0.74-0.6,1.14-0.77
	c0.78-0.38,1.6-0.04,2.74,1.11c1.07,1.08,1.96,2.07,6.79,7.43L75.42,106.78L75.42,106.78z"/>
<path d="M82.65,83.48l0.1-0.06c1.06,0.39,7.83,3.07,14.1,5.12c5.98,1.95,13.44,4.52,17,5.61c0.63,0.21,1.3,0.4,1.65,0.17
	c0.29-0.19,0.18-0.63-0.39-1.5L99.15,67.45c-1.42-2.25-1.7-3.25-1.02-4.15c0.3-0.37,0.56-0.53,0.88-0.74
	c0.38-0.25,0.5-0.49,0.34-0.73c-0.21-0.32-0.55-0.15-0.97,0.12c-1.56,1.01-2.69,1.92-3.05,2.15c-0.67,0.43-2.28,1.31-3.93,2.38
	c-0.48,0.31-0.8,0.58-0.6,0.9c0.16,0.24,0.36,0.28,0.74,0.03c0.45-0.29,1.21-0.79,1.84-0.86c1.02-0.1,1.8,0.47,3.41,2.88
	l11.92,17.68l-0.16,0.1c-0.95-0.29-8.98-3.23-12.9-4.53c-8.4-2.76-17.46-6.11-18.18-6.38c-1.01-0.37-1.63-0.7-1.98-0.47
	c-0.32,0.21-0.05,0.83,0.46,1.62l15.01,23.77c2.22,3.49,2.84,4.72,2.22,5.58c-0.34,0.45-0.89,0.86-1.3,1.13
	c-0.32,0.21-0.46,0.41-0.3,0.65c0.23,0.36,0.55,0.21,0.96-0.06c1.66-1.07,3.08-2.17,3.36-2.35c0.61-0.39,1.96-1.1,4.03-2.44
	c0.45-0.29,0.68-0.55,0.48-0.87c-0.16-0.24-0.4-0.2-0.75,0.03c-0.51,0.33-1.14,0.68-1.84,0.8c-0.82,0.13-1.9-0.63-3.98-3.7
	L82.65,83.48L82.65,83.48z"/>
<path d="M133.88,72.73c0.18-0.07,0.32-0.02,0.47,0.18l6.33,8.4c0.38,0.47,0.27,0.96,0.06,1.14c-0.34,0.18-0.45,0.32-0.35,0.58
	c0.11,0.31,0.54,0.15,1.2-0.04c2.88-0.96,5.49-1.92,6.77-2.39c1.32-0.49,1.61-0.69,1.48-1.05c-0.11-0.31-0.31-0.29-0.59-0.19
	c-0.43,0.16-0.98,0.31-1.56,0.37c-0.83,0.05-2.09-0.19-4.93-3.7c-4.78-5.93-17.18-22.01-18.93-24.15c-0.73-0.89-1.1-1.22-1.42-1.1
	c-0.36,0.13-0.39,0.7-0.34,2.15l1.36,31.28c0.11,2.49-0.01,4.25-1.55,5.13c-0.27,0.15-0.75,0.38-1.07,0.5
	c-0.29,0.11-0.4,0.25-0.3,0.51c0.13,0.36,0.38,0.37,0.84,0.2c1.85-0.68,3.77-1.54,4.16-1.68c1.1-0.41,2.69-0.84,3.83-1.26
	c0.39-0.14,0.57-0.31,0.44-0.67c-0.1-0.27-0.24-0.32-0.67-0.16l-0.53,0.2c-1.11,0.41-1.64-0.05-1.94-0.86
	c-0.2-0.54-0.41-1.67-0.47-2.92l-0.42-7.08c-0.03-0.29,0.01-0.41,0.19-0.47L133.88,72.73L133.88,72.73z M125.82,73.16
	c-0.14,0.05-0.23-0.07-0.26-0.26l-0.76-12.17c-0.03-0.19-0.04-0.44,0.07-0.48c0.11-0.04,0.22,0.17,0.33,0.34l7.26,9.82
	c0.09,0.12,0.1,0.27-0.08,0.33L125.82,73.16L125.82,73.16z"/>
<g>
</g>
<g>
</g>
<g>
</g>
<g>
</g>
<g>
</g>
<g>
</g>
<g>
</g>
<g>
</g>
<g>
</g>
<path d="M225.19,82.08c1.93,0.58,4.09,0.77,6.34-0.14c3.26-1.36,5-4.26,5.78-6.9c1.29-4.32,0.6-7.85-2.51-13.38l-0.74-1.26
	c-2.17-3.77-2.53-5.61-1.9-7.7c0.81-2.73,3.04-4.2,5.73-3.4c2.37,0.71,3.01,2.39,3.3,3.41c0.41,1.41,0.17,2.88,0.05,3.29
	c-0.16,0.55-0.14,0.85,0.12,0.93c0.29,0.09,0.51-0.24,0.81-1.25c1.06-3.55,1.6-4.83,1.77-5.42c0.1-0.32-0.05-0.51-0.35-0.7
	c-0.85-0.6-2.24-1.51-4.61-2.22c-5.06-1.51-9.48,1.09-10.97,6.09c-1.1,3.69-0.67,7.28,2.17,12.39l1.19,2.14
	c2.15,3.81,2.06,6.11,1.4,8.34c-0.72,2.41-3.15,4.71-6.42,3.73c-2.26-0.67-4.04-2.54-3.84-6.15c0.05-0.83,0.19-1.83,0.36-2.42
	c0.11-0.36,0.19-0.78-0.13-0.88c-0.29-0.09-0.55,0.38-0.79,1.05c-0.25,0.72-1.21,3.4-1.96,5.91c-0.3,1-0.26,1.26,0.23,1.75
	C221.53,80.65,223.08,81.45,225.19,82.08L225.19,82.08z"/>
<path d="M251.88,76.87c-1.86,3.95-3.46,7.34-4.48,9.07c-0.69,1.2-1.34,2.04-2.11,1.89c-0.35-0.06-0.8-0.17-1.32-0.41
	c-0.41-0.19-0.61-0.13-0.71,0.08c-0.14,0.3,0.04,0.54,0.49,0.75c1.37,0.65,3.6,1.54,4.39,1.91c0.96,0.45,3.07,1.6,5.33,2.67
	c0.38,0.18,0.71,0.18,0.86-0.12c0.1-0.22-0.01-0.43-0.39-0.6c-0.52-0.24-1.23-0.68-1.67-1c-0.95-0.66-0.71-1.7-0.25-2.95
	c0.7-1.93,2.3-5.32,4.16-9.27l8.3-17.61l4.27,2.17c3.02,1.53,3.38,3.17,2.92,4.32l-0.19,0.49c-0.27,0.66-0.3,0.91-0.03,1.04
	c0.21,0.1,0.4-0.13,0.63-0.54c0.53-1.12,2.03-4.03,2.45-4.93c0.3-0.64,0.39-0.92,0.15-1.03c-0.27-0.13-1.3-0.09-3.5-1.13
	l-13.61-6.41c-1.13-0.53-2.4-1.24-3.34-1.83c-0.82-0.49-0.96-1.08-1.23-1.21c-0.21-0.1-0.43,0.11-0.8,0.62
	c-0.23,0.31-2.73,3.91-3.05,4.6c-0.22,0.47-0.26,0.72-0.01,0.83c0.21,0.1,0.39-0.03,0.62-0.34c0.23-0.31,0.65-0.75,1.29-1.23
	c0.96-0.7,1.89-0.53,3.92,0.33l5.2,2.24L251.88,76.87L251.88,76.87z"/>
<path d="M273.98,86.41c-4.16,5.49-5.13,9.16-4.9,12.07c0.32,4.17,3.14,6.49,4.74,7.7c1.97,1.49,4.46,2.73,8.36,2.05
	c4.61-0.8,8.33-5.01,11.51-9.21l3.07-4.05c4.36-5.75,5.16-6.81,6.14-7.98c1.07-1.28,1.79-1.74,2.76-1.31
	c0.42,0.2,0.63,0.3,0.96,0.55c0.36,0.27,0.6,0.34,0.8,0.07c0.2-0.26,0.05-0.5-0.38-0.82c-1.18-0.89-3.17-2.23-3.54-2.5
	c-0.03-0.02-1.85-1.58-3.4-2.75c-0.42-0.32-0.69-0.41-0.89-0.14c-0.2,0.27-0.08,0.48,0.26,0.73c0.33,0.25,0.82,0.68,1,0.94
	c0.8,1.02,0.58,1.81-0.33,3.14c-0.86,1.26-1.66,2.32-6.02,8.07l-3.58,4.73c-2.95,3.9-5.62,7.24-8.87,8.06
	c-2.36,0.6-4.4-0.11-5.73-1.12c-1.03-0.78-2.31-1.99-2.61-4.42c-0.34-2.64,0.54-5.61,4.69-11.1l4.01-5.3
	c4.36-5.75,5.16-6.81,6.14-7.98c1.06-1.28,1.79-1.74,2.75-1.31c0.42,0.2,0.63,0.3,0.96,0.55c0.3,0.23,0.54,0.29,0.74,0.03
	c0.2-0.26,0.05-0.5-0.41-0.85c-1.09-0.83-3.08-2.16-3.81-2.71c-0.91-0.69-2.73-2.25-4.33-3.46c-0.46-0.34-0.72-0.43-0.93-0.16
	c-0.2,0.27-0.08,0.48,0.26,0.73c0.42,0.32,0.91,0.75,1.1,1.01c0.8,1.02,0.58,1.81-0.33,3.14c-0.86,1.26-1.66,2.32-6.02,8.07
	L273.98,86.41L273.98,86.41z"/>
<path d="M300.46,109.84c-3.32,2.84-6.17,5.28-7.81,6.43c-1.15,0.78-2.06,1.31-2.7,0.86c-0.29-0.2-0.66-0.48-1.03-0.92
	c-0.3-0.35-0.5-0.37-0.68-0.22c-0.25,0.22-0.19,0.51,0.13,0.89c0.99,1.15,2.65,2.88,3.22,3.54c1.23,1.44,3.02,4.41,4.82,6.52
	c4.57,5.34,9.7,6.15,12.53,6.03c3.44-0.14,8.21-1.57,12.76-5.46c4.3-3.67,6.13-7.59,6.77-10.64c1.42-6.66-2.7-11.49-5.78-15.1
	c-1.48-1.73-3.14-3.46-3.91-4.36c-0.69-0.81-2.14-2.72-3.45-4.25c-0.37-0.43-0.61-0.57-0.87-0.36c-0.25,0.22-0.18,0.45,0.1,0.77
	c0.35,0.4,0.73,0.93,0.85,1.22c0.56,1.17,0.18,1.89-1,3c-1.11,1.05-2.12,1.91-7.6,6.6L300.46,109.84L300.46,109.84z M310.47,107.52
	c2.85-2.44,5.99-5.12,7.24-6.14c0.4-0.34,0.65-0.41,1.02-0.27c0.34,0.11,1.36,1.08,1.86,1.66c1.92,2.25,4.31,5.91,3.4,11.29
	c-0.42,2.51-2.07,6.57-6.65,10.49c-3.72,3.18-7.5,5.41-11.06,5.26c-3.36-0.13-5.76-1.48-8.28-4.42c-1.95-2.28-2.15-4.06-1.79-5.02
	c0.2-0.57,1.6-1.86,2.47-2.66c0.66-0.61,3.42-3.02,7.24-6.29L310.47,107.52L310.47,107.52z"/>
<path d="M321.48,137c-3.92,2.42-7.11,4.39-8.91,5.27c-1.23,0.63-2.04,0.86-2.6,0.31c-0.26-0.24-0.58-0.58-0.88-1.07
	c-0.24-0.39-0.44-0.44-0.64-0.32c-0.28,0.17-0.26,0.48,0,0.89c0.8,1.29,2.17,3.26,2.63,4c0.54,0.87,1.67,2.98,2.99,5.12
	c0.22,0.36,0.5,0.54,0.78,0.36c0.2-0.12,0.22-0.36,0.01-0.72c-0.3-0.49-0.66-1.25-0.86-1.75c-0.44-1.07,0.15-1.74,1.18-2.51
	c1.66-1.2,4.85-3.17,8.77-5.59l7.11-4.39c6.14-3.79,7.27-4.49,8.61-5.22c1.45-0.81,2.3-0.97,3.04-0.22c0.32,0.34,0.52,0.57,0.72,0.9
	c0.2,0.32,0.4,0.47,0.72,0.27c0.24-0.15,0.16-0.46-0.09-0.88c-0.76-1.23-2.06-3.06-2.55-3.87c-0.58-0.94-1.71-3.05-2.47-4.28
	c-0.32-0.52-0.56-0.73-0.8-0.58c-0.32,0.2-0.28,0.44-0.09,0.77c0.24,0.39,0.46,0.83,0.56,1.26c0.24,0.84-0.25,1.58-1.59,2.49
	c-1.25,0.86-2.38,1.56-8.53,5.35L321.48,137L321.48,137z"/>
<path d="M322.06,167.52c3.73,8.9,14.01,11.18,24.04,6.97c10.03-4.21,14.1-12.3,10.44-21.02c-4.41-10.51-15.74-10.41-23.23-7.27
	C325.55,149.45,317.84,157.46,322.06,167.52L322.06,167.52z M324.86,168.07c-2.82-6.73,2.71-13.79,11.82-17.6
	c10.9-4.57,15.63-1.16,17.32,2.87c2.41,5.75-1.78,12.82-11.59,16.93C329.76,175.57,325.89,170.52,324.86,168.07L324.86,168.07z"/>
<path d="M343.16,184.61c-4.29,0.83-7.97,1.54-9.97,1.73c-1.38,0.11-2.44,0.12-2.77-0.59c-0.16-0.32-0.34-0.75-0.45-1.31
	c-0.09-0.45-0.26-0.57-0.49-0.53c-0.33,0.06-0.42,0.35-0.32,0.84c0.29,1.49,0.88,3.82,1.02,4.52c0.11,0.56,0.5,3.35,0.92,5.51
	c0.09,0.48,0.28,0.72,0.61,0.66c0.23-0.05,0.34-0.22,0.29-0.52c-0.09-0.45-0.15-1.29-0.17-1.86c-0.03-1.15,0.95-1.58,2.28-1.95
	c1.92-0.57,5.6-1.28,9.94-2.11l0.65-0.13c0.28-0.05,0.39,0.04,0.43,0.23l0.53,3.26c0.05,0.26,0.05,0.49-0.2,0.73
	c-0.61,0.62-3.44,2.95-5.72,4.93c-3.19,2.78-5.1,4.62-5.87,6.43c-0.47,1.1-0.52,2.07-0.11,4.16l0.68,3.54
	c0.09,0.45,0.23,0.69,0.6,0.62c0.23-0.04,0.34-0.22,0.29-0.52c-0.06-0.3-0.08-0.64-0.06-1.07c0.03-0.59,0.06-2.18,2.36-4.79
	c2.47-2.76,6.12-6.13,10.7-10.46c4.55,3.03,7.94,3.57,11.39,2.91c3.12-0.6,5.21-2.55,5.9-3.77c1.34-2.35,1.13-4.9,0.68-7.25
	c-0.22-1.16-0.91-3.96-1.16-5.23c-0.15-0.78-0.46-3.16-0.85-5.14c-0.11-0.56-0.25-0.8-0.58-0.74c-0.33,0.06-0.38,0.31-0.3,0.71
	c0.1,0.52,0.18,1.17,0.14,1.48c-0.09,1.29-0.78,1.74-2.35,2.12c-1.48,0.36-2.78,0.62-9.87,1.98L343.16,184.61L343.16,184.61z
	 M362.7,185.4c0.37-0.07,0.57-0.03,0.72,0.21c0.21,0.35,0.39,1.01,0.57,1.94c0.42,2.2-0.81,6.08-7.43,7.35
	c-3.82,0.74-6.18,0.07-7.42-0.85c-0.74-0.56-1.02-1-1.3-2.5c-0.18-0.93-0.26-2.08-0.08-2.92c0.09-0.29,0.26-0.4,0.77-0.5
	L362.7,185.4L362.7,185.4z"/>
<path d="M350.74,219.06c-6.88-0.04-10.41,1.38-12.6,3.3c-3.15,2.75-3.32,6.4-3.33,8.41c-0.02,2.47,0.49,5.21,3.37,7.92
	c3.4,3.21,9,3.66,14.27,3.7l5.08,0.03c7.22,0.04,8.55,0.05,10.07,0.14c1.66,0.09,2.47,0.4,2.7,1.42c0.09,0.46,0.14,0.69,0.14,1.1
	c0,0.45,0.09,0.68,0.42,0.69c0.33,0,0.43-0.26,0.43-0.79c0.01-1.48-0.12-3.88-0.12-4.33c0-0.04,0.16-2.43,0.17-4.37
	c0-0.53-0.09-0.8-0.42-0.8c-0.33,0-0.43,0.22-0.43,0.64c0,0.42-0.05,1.06-0.15,1.37c-0.34,1.25-1.1,1.55-2.72,1.62
	c-1.52,0.07-2.85,0.06-10.07,0.01l-5.93-0.04c-4.89-0.03-9.16-0.17-11.76-2.27c-1.89-1.53-2.54-3.59-2.53-5.26
	c0.01-1.29,0.21-3.04,1.98-4.74c1.91-1.85,4.81-2.93,11.7-2.89l6.65,0.04c7.22,0.04,8.55,0.05,10.07,0.14
	c1.66,0.09,2.47,0.39,2.7,1.42c0.09,0.46,0.14,0.68,0.14,1.1c0,0.38,0.09,0.61,0.42,0.61c0.33,0,0.43-0.26,0.43-0.83
	c0.01-1.37-0.12-3.76-0.11-4.67c0.01-1.14,0.16-3.53,0.18-5.54c0-0.57-0.09-0.84-0.42-0.84c-0.33,0-0.43,0.23-0.43,0.64
	c0,0.53-0.05,1.18-0.15,1.48c-0.34,1.25-1.1,1.55-2.72,1.62c-1.52,0.07-2.85,0.06-10.07,0.01L350.74,219.06L350.74,219.06z"/>
<path d="M338.87,251.57c-1.52-0.57-3.25-1.3-3.28-2.4c0-0.59,0.06-0.85,0.13-1.14c0.09-0.37,0.05-0.61-0.18-0.67
	c-0.42-0.1-0.58,0.17-0.67,0.54c-0.29,1.18-0.58,2.99-0.75,3.69c-0.16,0.67-0.71,2.29-1.08,3.84c-0.14,0.55-0.12,0.91,0.29,1.01
	c0.23,0.06,0.39-0.18,0.46-0.47c0.09-0.37,0.26-0.87,0.61-1.49c0.34-0.58,0.87-0.96,1.75-0.75c0.74,0.18,1.33,0.36,2.14,0.64
	l17.89,6.41l-0.04,0.15c-3.77,0.45-10.13,1.24-11.18,1.33c-1.4,0.13-9.17,1.32-11.51,1.69c-1.53,0.25-2.54,0.4-2.62,0.73
	c-0.08,0.33,0.29,0.62,2.25,2l18.98,13.16l-0.04,0.15l-20.84-2.75c-1.33-0.17-1.9-0.42-1.94-0.67c-0.07-0.29-0.18-0.47-0.41-0.53
	c-0.28-0.07-0.47,0.12-0.77,0.95c-0.5,1.44-1.88,6.5-2.11,7.42c-0.13,0.52-0.1,0.99,0.27,1.08c0.28,0.07,0.39-0.18,0.47-0.51
	c0.12-0.48,0.34-1.21,1.02-2.18c0.69-1.01,2.11-1.05,5.1-0.67l29.33,3.61c1,0.13,1.51,0.02,1.59-0.32c0.08-0.33-0.23-0.64-0.91-1.08
	l-23.89-16.47l28.48-3.72c1.32-0.19,1.6-0.35,1.67-0.65c0.07-0.3-0.29-0.62-1.05-0.92L338.87,251.57L338.87,251.57z"/>
<g>
</g>
<g>
</g>
<g>
</g>
<g>
</g>
<path d="M318.3,330.71c-5.23-4.47-8.84-5.66-11.76-5.61c-4.18,0.07-6.66,2.75-7.97,4.28c-1.6,1.88-2.98,4.3-2.54,8.23
	c0.53,4.65,4.51,8.61,8.52,12.03l3.86,3.3c5.49,4.69,6.5,5.55,7.6,6.6c1.21,1.14,1.63,1.89,1.14,2.83
	c-0.22,0.41-0.34,0.61-0.61,0.93c-0.3,0.35-0.37,0.58-0.12,0.8c0.25,0.22,0.5,0.08,0.84-0.33c0.96-1.13,2.41-3.04,2.71-3.39
	c0.02-0.03,1.69-1.75,2.95-3.23c0.34-0.4,0.45-0.67,0.19-0.88c-0.25-0.22-0.47-0.1-0.74,0.21c-0.27,0.32-0.73,0.78-1,0.95
	c-1.07,0.74-1.84,0.47-3.12-0.52c-1.2-0.93-2.22-1.79-7.7-6.48l-4.51-3.86c-3.72-3.18-6.89-6.04-7.52-9.33
	c-0.46-2.39,0.37-4.38,1.46-5.65c0.84-0.98,2.12-2.19,4.57-2.35c2.65-0.18,5.57,0.86,10.8,5.34l5.05,4.32
	c5.49,4.69,6.5,5.55,7.6,6.6c1.21,1.14,1.63,1.89,1.14,2.83c-0.22,0.41-0.34,0.61-0.61,0.93c-0.25,0.29-0.32,0.52-0.07,0.74
	c0.25,0.22,0.5,0.07,0.87-0.36c0.89-1.04,2.34-2.95,2.93-3.64c0.74-0.87,2.4-2.59,3.71-4.12c0.37-0.43,0.47-0.7,0.22-0.91
	c-0.25-0.22-0.47-0.11-0.74,0.21c-0.35,0.4-0.8,0.86-1.07,1.03c-1.07,0.74-1.84,0.47-3.12-0.52c-1.2-0.93-2.22-1.79-7.7-6.48
	L318.3,330.71L318.3,330.71z"/>
<path d="M299.19,367.38l-0.09,0.07c-1.09-0.31-8.04-2.49-14.43-4.08c-6.1-1.51-13.73-3.54-17.36-4.36c-0.65-0.16-1.33-0.3-1.66-0.05
	c-0.27,0.21-0.14,0.64,0.49,1.47l17.76,24.13c1.58,2.14,1.93,3.12,1.32,4.07c-0.28,0.39-0.52,0.57-0.82,0.8
	c-0.36,0.27-0.46,0.53-0.29,0.75c0.23,0.3,0.56,0.11,0.96-0.19c1.48-1.12,2.55-2.11,2.88-2.36c0.64-0.48,2.17-1.47,3.75-2.66
	c0.45-0.34,0.76-0.63,0.53-0.94c-0.17-0.23-0.38-0.25-0.74,0.03c-0.42,0.32-1.15,0.87-1.78,0.99c-1.01,0.17-1.83-0.34-3.61-2.63
	l-13.18-16.77l0.15-0.11c0.97,0.21,9.19,2.57,13.2,3.58c8.58,2.14,17.86,4.82,18.59,5.04c1.03,0.29,1.68,0.58,2.01,0.32
	c0.3-0.23-0.01-0.83-0.58-1.58l-16.7-22.61c-2.46-3.32-3.18-4.51-2.62-5.41c0.31-0.47,0.83-0.92,1.22-1.22
	c0.3-0.23,0.43-0.44,0.26-0.67c-0.26-0.34-0.56-0.17-0.95,0.13c-1.58,1.19-2.91,2.38-3.19,2.59c-0.57,0.44-1.87,1.24-3.84,2.73
	c-0.42,0.32-0.64,0.6-0.41,0.91c0.17,0.23,0.41,0.17,0.74-0.09c0.48-0.37,1.09-0.77,1.77-0.93c0.81-0.19,1.95,0.49,4.24,3.4
	L299.19,367.38L299.19,367.38z"/>
<path d="M263.95,375.34c-2.17-4.06-3.93-7.37-4.7-9.22c-0.55-1.27-0.73-2.09-0.15-2.61c0.26-0.24,0.61-0.54,1.12-0.81
	c0.4-0.21,0.47-0.41,0.36-0.62c-0.16-0.29-0.46-0.29-0.89-0.06c-1.34,0.71-3.39,1.97-4.16,2.38c-0.91,0.48-3.08,1.48-5.3,2.66
	c-0.37,0.2-0.57,0.47-0.41,0.76c0.11,0.21,0.35,0.25,0.71,0.05c0.5-0.27,1.28-0.58,1.8-0.74c1.1-0.37,1.73,0.26,2.44,1.34
	c1.09,1.73,2.86,5.04,5.03,9.1l3.93,7.37c3.4,6.37,4.02,7.54,4.67,8.92c0.71,1.5,0.83,2.36,0.03,3.05c-0.36,0.3-0.6,0.48-0.94,0.66
	c-0.34,0.18-0.49,0.37-0.31,0.71c0.13,0.25,0.45,0.19,0.88-0.04c1.27-0.68,3.18-1.86,4.02-2.31c0.97-0.52,3.15-1.52,4.42-2.2
	c0.54-0.29,0.76-0.51,0.63-0.76c-0.18-0.34-0.42-0.31-0.76-0.13c-0.4,0.21-0.86,0.4-1.3,0.48c-0.85,0.18-1.56-0.35-2.39-1.74
	c-0.78-1.3-1.41-2.48-4.8-8.85L263.95,375.34L263.95,375.34z"/>
<path d="M235.53,376.66c-1.4-1.88-1.83-2.44-2.3-2.28c-0.5,0.17-0.47,0.96-0.52,3.89c-0.03,2.52-0.05,7.99-0.12,15.34
	c-0.06,6.19-0.21,8.95-0.17,13.65c0.01,3.21-0.27,4.16-0.6,4.72c-0.46,0.76-1.22,1.02-1.58,1.14c-0.36,0.12-0.55,0.29-0.44,0.6
	s0.43,0.31,0.89,0.15c1.08-0.37,2.72-1.08,3.33-1.29c0.47-0.16,2.02-0.54,3.82-1.15c0.68-0.23,0.98-0.43,0.85-0.79
	c-0.11-0.32-0.41-0.26-0.73-0.15c-0.47,0.16-1.02,0.3-1.51,0.27c-0.37-0.02-0.64-0.34-0.76-0.7c-0.14-0.4-0.22-1.13-0.24-1.77
	c-0.15-3.26-0.39-19.33-0.53-24.8l0.14-0.05l13.13,18.31c1.05,1.45,1.81,2.6,2,3.18c0.14,0.4,0.14,0.76-0.04,1.07
	c-0.2,0.37-0.72,0.6-1.3,0.79c-0.32,0.11-0.51,0.27-0.4,0.59s0.53,0.27,0.96,0.12c1.8-0.61,3.48-1.33,4.38-1.64
	c1.26-0.43,3.36-0.99,5.26-1.64c0.54-0.18,0.92-0.36,0.8-0.72c-0.09-0.27-0.24-0.37-0.57-0.26c-0.29,0.1-0.86,0.29-1.46,0.3
	c-1.45-0.01-2.23-0.29-3.9-2.49L235.53,376.66L235.53,376.66z"/>
<path d="M214.29,393.52c-0.59-4.33-1.1-8.04-1.18-10.05c-0.04-1.39,0.01-2.45,0.74-2.74c0.33-0.14,0.77-0.3,1.33-0.37
	c0.45-0.06,0.58-0.22,0.55-0.46c-0.05-0.33-0.33-0.43-0.82-0.37c-1.51,0.21-3.86,0.67-4.72,0.79c-2.22,0.3-4.78,0.37-10.46,1.14
	c-1.43,0.2-1.77,0.24-1.86,1.5c-0.06,0.97,0.08,4.21,0.23,5.29c0.06,0.47,0.12,0.85,0.42,0.81c0.26-0.04,0.31-0.23,0.32-0.76
	c0-1.96,0.32-3.01,1.22-3.71c0.9-0.7,2.48-0.92,3.46-1.05c3.84-0.52,4.54,0.1,5.06,3.33c0.23,1.36,0.78,5.69,1,7.29l0.51,3.72
	c0.04,0.28,0.03,0.48-0.16,0.5c-0.9,0.12-4.64,0.59-5.36,0.59c-1.42,0-2.04-0.63-2.36-1.55c-0.2-0.6-0.28-1.21-0.38-1.67
	c-0.03-0.24-0.13-0.41-0.4-0.38c-0.34,0.05-0.27,0.56-0.22,0.94c0.05,0.33,0.23,2.22,0.28,3.17c0.21,2.42,0.13,3.19,0.17,3.48
	c0.04,0.28,0.16,0.36,0.32,0.34c0.19-0.03,0.31-0.28,0.52-0.69c0.27-0.52,0.82-0.74,1.71-0.95c0.85-0.21,5.18-0.81,6.01-0.92
	c0.23-0.03,0.29,0.15,0.33,0.48l1.63,11.9c0.04,0.33-0.01,0.48-0.2,0.51c-0.75,0.1-4.72,0.55-5.37,0.54
	c-1.92-0.02-2.37-0.54-2.75-1.35c-0.27-0.54-0.41-1.33-0.46-1.66c-0.06-0.42-0.17-0.65-0.43-0.61c-0.26,0.04-0.3,0.33-0.3,0.57
	c0,0.58,0.21,2.65,0.24,3.13c0.18,2.18,0.07,2.77,0.12,3.1c0.03,0.23,0.09,0.42,0.28,0.39c0.19-0.03,0.39-0.2,0.58-0.27
	c0.29-0.14,0.88-0.31,1.58-0.5c0.71-0.14,8.2-1.17,9.4-1.34c1.05-0.14,3.44-0.33,5.44-0.6c0.56-0.08,0.82-0.21,0.77-0.54
	c-0.05-0.33-0.28-0.39-0.7-0.34c-0.53,0.07-1.17,0.11-1.49,0.06c-1.29-0.16-1.69-0.87-1.99-2.46c-0.28-1.49-0.46-2.81-1.44-9.96
	L214.29,393.52L214.29,393.52z"/>
<path d="M190.89,396.09c0.2-4.36,0.37-8.11,0.65-10.1c0.22-1.37,0.45-2.4,1.22-2.56c0.35-0.08,0.81-0.15,1.38-0.13
	c0.45,0.02,0.61-0.11,0.62-0.35c0.02-0.33-0.24-0.49-0.74-0.51c-1.52-0.07-3.92-0.04-4.64-0.07c-0.57-0.03-3.37-0.3-5.57-0.4
	c-0.49-0.02-0.76,0.11-0.78,0.44c-0.01,0.24,0.13,0.39,0.44,0.4c0.46,0.02,1.29,0.15,1.85,0.27c1.13,0.24,1.31,1.29,1.36,2.68
	c0.1,2-0.07,5.75-0.27,10.16l-0.03,0.66c-0.01,0.28-0.13,0.37-0.32,0.37l-3.3-0.25c-0.27-0.01-0.49-0.07-0.67-0.36
	c-0.46-0.73-2.06-4.04-3.46-6.72c-1.96-3.75-3.3-6.04-4.88-7.21c-0.96-0.71-1.9-0.99-4.02-1.09l-3.61-0.16
	c-0.45-0.02-0.72,0.06-0.74,0.44c-0.01,0.24,0.13,0.39,0.44,0.4c0.3,0.01,0.64,0.08,1.06,0.19c0.56,0.17,2.1,0.57,4.1,3.42
	c2.11,3.04,4.53,7.38,7.67,12.85c-4.01,3.71-5.33,6.89-5.49,10.4c-0.14,3.18,1.26,5.67,2.29,6.62c1.97,1.85,4.5,2.25,6.89,2.36
	c1.18,0.05,4.07,0.04,5.36,0.1c0.8,0.04,3.18,0.29,5.19,0.38c0.57,0.03,0.84-0.06,0.85-0.39c0.02-0.33-0.21-0.44-0.63-0.46
	c-0.53-0.02-1.17-0.1-1.47-0.21c-1.24-0.39-1.51-1.16-1.51-2.78c-0.01-1.52,0.05-2.85,0.38-10.06L190.89,396.09L190.89,396.09z
	 M185.54,414.91c-0.02,0.38-0.1,0.56-0.37,0.65c-0.39,0.12-1.07,0.14-2.02,0.1c-2.24-0.1-5.72-2.21-5.41-8.94
	c0.18-3.89,1.38-6.02,2.56-7.01c0.71-0.58,1.21-0.75,2.73-0.68c0.95,0.04,2.08,0.24,2.86,0.61c0.26,0.15,0.33,0.35,0.3,0.87
	L185.54,414.91L185.54,414.91z"/>
<path d="M157.46,379.56c-1.96-0.45-4.13-0.51-6.32,0.54c-3.17,1.56-4.71,4.57-5.33,7.25c-1.01,4.4-0.1,7.87,3.36,13.2l0.81,1.21
	c2.4,3.62,2.88,5.44,2.39,7.57c-0.64,2.78-2.76,4.38-5.5,3.75c-2.41-0.55-3.16-2.19-3.51-3.19c-0.5-1.38-0.36-2.86-0.26-3.28
	c0.13-0.55,0.08-0.86-0.18-0.92c-0.3-0.07-0.49,0.28-0.73,1.29c-0.83,3.61-1.29,4.92-1.43,5.52c-0.07,0.32,0.08,0.51,0.39,0.67
	c0.89,0.54,2.34,1.37,4.74,1.92c5.14,1.18,9.39-1.69,10.56-6.78c0.86-3.75,0.2-7.31-2.96-12.23l-1.32-2.06
	c-2.39-3.67-2.45-5.97-1.92-8.24c0.56-2.45,2.84-4.9,6.17-4.13c2.3,0.53,4.19,2.28,4.22,5.89c0.01,0.83-0.07,1.84-0.21,2.44
	c-0.09,0.37-0.14,0.8,0.19,0.87c0.3,0.07,0.52-0.42,0.72-1.1c0.21-0.73,0.99-3.47,1.58-6.02c0.23-1.02,0.18-1.27-0.34-1.73
	C161.2,380.77,159.61,380.06,157.46,379.56L157.46,379.56z"/>
<path d="M134.75,387.37c1.59-4.32,2.89-7.84,3.76-9.65c0.58-1.25,1.08-1.93,1.85-1.85c0.35,0.03,0.81,0.1,1.35,0.29
	c0.43,0.16,0.62,0.08,0.7-0.15c0.11-0.31-0.09-0.54-0.55-0.71c-1.43-0.52-3.72-1.22-4.54-1.52c-0.96-0.36-3.16-1.32-5.51-2.18
	c-0.39-0.14-0.73-0.12-0.84,0.2c-0.08,0.22,0.05,0.42,0.44,0.57c0.53,0.2,1.29,0.57,1.75,0.85c1,0.57,0.96,1.47,0.62,2.71
	c-0.56,1.97-1.86,5.49-3.45,9.81l-2.89,7.84c-2.49,6.77-2.95,8.02-3.55,9.42c-0.65,1.53-1.21,2.18-2.25,2.05
	c-0.46-0.07-0.76-0.13-1.12-0.26c-0.36-0.13-0.6-0.12-0.73,0.24c-0.1,0.27,0.15,0.46,0.62,0.63c1.36,0.5,3.51,1.14,4.4,1.47
	c1.03,0.38,3.23,1.34,4.58,1.84c0.57,0.21,0.89,0.23,0.99-0.04c0.13-0.36-0.05-0.52-0.41-0.66c-0.43-0.16-0.88-0.37-1.22-0.65
	c-0.7-0.51-0.78-1.4-0.29-2.94c0.45-1.45,0.91-2.7,3.41-9.47L134.75,387.37L134.75,387.37z"/>
<path d="M113.4,378.3c2.01-3.88,3.73-7.21,4.82-8.89c0.73-1.17,1.42-1.99,2.18-1.81c0.35,0.07,0.8,0.2,1.3,0.46
	c0.4,0.21,0.61,0.15,0.71-0.06c0.15-0.3-0.02-0.54-0.46-0.77c-1.35-0.7-3.54-1.67-4.32-2.07c-0.95-0.49-3-1.72-5.23-2.87
	c-0.37-0.19-0.71-0.21-0.86,0.09c-0.11,0.21-0.01,0.42,0.36,0.62c0.51,0.26,1.21,0.73,1.63,1.06c0.93,0.69,0.65,1.73,0.14,2.96
	c-0.77,1.9-2.49,5.23-4.5,9.11l-8.95,17.29l-4.18-2.33c-2.96-1.64-3.26-3.29-2.76-4.42l0.21-0.48c0.29-0.65,0.34-0.9,0.07-1.04
	c-0.2-0.1-0.4,0.11-0.65,0.52c-0.57,1.1-2.18,3.95-2.63,4.84c-0.33,0.63-0.43,0.9-0.19,1.03c0.27,0.14,1.3,0.14,3.46,1.25
	l13.36,6.91c1.11,0.58,2.35,1.32,3.27,1.96c0.8,0.52,0.92,1.12,1.19,1.26c0.2,0.11,0.43-0.1,0.82-0.59c0.24-0.3,2.87-3.81,3.22-4.48
	c0.24-0.46,0.28-0.71,0.04-0.83c-0.2-0.11-0.39,0.01-0.63,0.31c-0.24,0.3-0.67,0.72-1.34,1.18c-0.99,0.67-1.9,0.46-3.91-0.47
	l-5.11-2.43L113.4,378.3L113.4,378.3z"/>
<path d="M85.58,358.55c-0.15-0.12-0.18-0.26-0.09-0.5l3.89-9.77c0.21-0.56,0.68-0.73,0.95-0.64c0.33,0.2,0.51,0.22,0.68,0
	c0.21-0.26-0.15-0.54-0.65-1.01c-2.32-1.97-4.49-3.69-5.56-4.55c-1.1-0.88-1.43-1.01-1.66-0.72c-0.21,0.26-0.09,0.42,0.15,0.61
	c0.36,0.28,0.77,0.68,1.13,1.14c0.48,0.68,0.92,1.89-0.61,6.13c-2.59,7.16-9.91,26.1-10.82,28.71c-0.38,1.09-0.47,1.57-0.2,1.78
	c0.3,0.24,0.8-0.03,2.02-0.82l26.03-17.39c2.07-1.38,3.64-2.2,5.19-1.33c0.27,0.15,0.71,0.45,0.98,0.66
	c0.24,0.19,0.41,0.21,0.59-0.01c0.24-0.3,0.12-0.51-0.27-0.82c-1.54-1.23-3.27-2.42-3.59-2.68c-0.92-0.73-2.11-1.86-3.06-2.62
	c-0.33-0.26-0.56-0.33-0.8-0.03c-0.18,0.22-0.15,0.37,0.21,0.65l0.45,0.36c0.92,0.73,0.8,1.43,0.27,2.1
	c-0.35,0.45-1.21,1.22-2.25,1.91l-5.83,4.04c-0.24,0.17-0.36,0.2-0.5,0.08L85.58,358.55L85.58,358.55z M90.13,365.21
	c0.12,0.09,0.06,0.23-0.09,0.35l-10.01,6.96c-0.15,0.12-0.36,0.26-0.44,0.19c-0.09-0.07,0.03-0.28,0.12-0.45l4.63-11.3
	c0.06-0.14,0.18-0.22,0.33-0.1L90.13,365.21L90.13,365.21z"/>
<path d="M78.18,335.08c-1.34-1.5-3.08-2.8-5.48-3.2c-3.49-0.55-6.48,1.02-8.54,2.86c-3.36,3.01-4.61,6.38-4.86,12.72l-0.03,1.46
	c-0.12,4.35-0.78,6.1-2.4,7.56c-2.12,1.9-4.78,1.99-6.66-0.1c-1.65-1.84-1.32-3.61-1.03-4.64c0.39-1.42,1.36-2.54,1.67-2.83
	c0.42-0.38,0.56-0.66,0.38-0.85c-0.2-0.23-0.56-0.06-1.34,0.64c-2.76,2.47-3.88,3.28-4.34,3.69c-0.25,0.22-0.23,0.46-0.07,0.78
	c0.41,0.96,1.12,2.46,2.77,4.3c3.53,3.93,8.65,4.03,12.54,0.54c2.86-2.57,4.37-5.86,4.62-11.7l0.11-2.44
	c0.16-4.38,1.44-6.29,3.17-7.84c1.87-1.68,5.15-2.37,7.43,0.18c1.57,1.75,2.11,4.28,0.06,7.25c-0.47,0.68-1.12,1.46-1.57,1.87
	c-0.28,0.25-0.58,0.57-0.35,0.82c0.2,0.23,0.67-0.04,1.22-0.49c0.59-0.48,2.81-2.27,4.76-4.01c0.78-0.7,0.88-0.94,0.72-1.61
	C80.54,338.21,79.65,336.72,78.18,335.08L78.18,335.08z"/>
<g>
</g>
<g>
</g>
<path class="st0" d="M181.17,61.31c0,0.45-0.49,0.78-0.39,1.22c0.49-0.08,3.9,0.02,4.38,0c0.28-0.01-0.06-0.47-0.05-0.79
	c-0.01-0.17-2.49-0.54-3.51-0.54C181.49,61.2,181.17,61.31,181.17,61.31L181.17,61.31z"/>
<path class="st0" d="M180.69,62.66l-0.02-0.11c-0.06-0.28,0.07-0.51,0.2-0.73c0.1-0.17,0.19-0.34,0.19-0.51v-0.08l0.08-0.03
	c0.1-0.04,0.36-0.12,0.47-0.11c0,0,0,0,0,0c0.43,0,3.6,0.27,3.62,0.65c0,0.11,0.04,0.25,0.08,0.37c0.06,0.18,0.11,0.33,0.04,0.45
	c-0.03,0.04-0.08,0.09-0.18,0.09c-0.18,0.01-0.77,0-1.45-0.01c-1.1-0.02-2.62-0.04-2.91,0.01L180.69,62.66z M181.8,62.38
	c0.57,0,1.28,0.01,1.91,0.02c0.68,0.01,1.26,0.02,1.43,0.01c0.01-0.02-0.04-0.15-0.06-0.23c-0.04-0.12-0.09-0.26-0.1-0.39
	c-0.31-0.15-2.44-0.47-3.4-0.47c-0.05,0-0.18,0.03-0.31,0.07c-0.02,0.2-0.12,0.38-0.22,0.55c-0.1,0.16-0.18,0.31-0.18,0.46
	C181.07,62.39,181.4,62.38,181.8,62.38z"/>
<path d="M185.87,371.03c-77.61,0-140.75-63.81-140.75-142.24c0-52.16,28.19-100.06,73.56-125.02l1.11,2.03
	c-44.63,24.55-72.36,71.68-72.36,122.99c0,77.16,62.1,139.93,138.43,139.93c76.33,0,138.43-62.77,138.43-139.93
	c0-34.06-12.25-66.88-34.49-92.42c-22.04-25.3-52.28-41.72-85.16-46.23l0.31-2.29c33.43,4.59,64.18,21.28,86.58,47
	c22.61,25.96,35.06,59.32,35.06,93.94C326.62,307.23,263.48,371.03,185.87,371.03z"/>
<path class="st1" d="M208.31,27.89 M223.77,21.54"/>
<path d="M304.03,251.97c-6.74-8.45-10.67-17.67-13.92-27.95c-2.09-6.61-3.75-12.76-3.96-19.64c-0.12-4.09-0.73-8.88-2.99-12.01
	c-3.18-4.41-4.56-8.76-4.75-13.96c-0.11-2.89-0.72-5.83-1.5-8.63c-4.93-17.87-14.93-33.18-24.74-48.57
	c-0.58-0.92-1.51-1.79-2.49-2.25c-9.99-4.75-20-9.44-30.03-14.09c-2.65-1.23-5.45-2.16-8.08-3.45c-3.49-1.71-6.07-4.46-5.05-8.54
	c1.77-7.09,3.7-14.35,5.94-21.4c1.5-4.71,3.47-9.25,0.94-14.11c-2.15-4.13-1.8-8.2,0.15-12.21c2.07-4.24,4.44-8.34,6.4-12.63
	c2.8-6.14,1.94-6.08-2.97-9.4c-2.83-1.91-7.21-4.32-10.41-5.49c-31.47-11.53-50.54,0.62-56.63,3.84c0.45,2.19,0.93,4.58,1.44,6.97
	c0.79,3.71,5.38,15.01,5,17.34c-3.53,21.41-2.38,21.41-0.21,38.52c0.39,4.39,0.55,12.63,0.55,12.63
	c-4.48,2.94-16.71,10.94-16.71,10.94c-1.36-3.06-4.92-4.61-6.8-5.53c-1.7-0.83-2.55-0.77-4.14-1.87c-2.77-1.92-3.88-2.51-7.7-5.01
	c-1.05,9.93-10.47,17.85-3.46,26.9c-6.63,4.84-12.62,10.8-17.13,17.53c-3.95,5.9-6.87,12.59-9.62,19.19
	c-8.56,20.58-13.37,42.09-11.62,64.37c0.75,9.53,1.04,18.29-3.5,26.93c-4.63,8.82-2.92,16.5,4.65,23.21c2.25,1.99,4.35,5.22,4.7,8.1
	c1.84,15.2,2.76,30.52,4.78,45.69c0.52,3.93-0.37,3.29,4.3,8.74c0.16,0.02,2.51,1.49-0.64-1.49c-2.53-2.4-1.04-7.41-1.28-10.18
	c-0.95-10.71-1.88-21.43-2.87-32.15c-0.28-3.1-0.72-6.18-1.12-9.64c1.03,0.43,1.5,0.5,1.55,0.67c0.88,3.29,1.74,6.58,2.56,9.88
	c4.51,18.37,9.38,36.64,18.44,53.41c1.22,2.25,6.01,5.58,8.11,5.91c6.67,1.04,10.9,0.88,17.67,0.89c4.48,0,7.36-2.61,8.72-7.12
	c0.72-2.37,0.99-13.55,2.26-15.75c0.77,0.24,2.75,11.54,3.52,11.79c-1.12,8.93-2.03,13.53-3.15,22.46c0.23,0.1,1.27,0.37,1.5,0.46
	c1.54-3.56,1.81-9.41,3.35-12.98c0.39,0.06,1.78,2.12,1.64,4.66c0,3.93-0.01,4.93-0.01,9.36c1.18-0.76,1.15-6.56,1.73-6.94
	c0.58,1.56,3.21,7.27,4.74,8.44c-7.05-16.49-8.79-30.13-13.53-46.86c8.74-1.1,15.94-4.73,21.23-11.39c3.43-4.32,6.29-9.1,9.43-13.66
	c2.42-3.52,4.89-7.02,7.34-10.53c2.37,4.21,4.38,7.76,6.8,12.06c-6.68,24.13-12.42,47.73-20.51,72.12c0.16,0.14,1.46-0.14,1.62,0
	c1.27-1.95,5.28-14.65,6.96-17.25c0.83,1.98-1.4,15.33-4.07,17.42c1.88,0,3.76,0.06,5.2,0.06c0.59-10.38,1.01-18.78,1.59-28.9
	c0.58,0.02,2.3-7.28,2.88-7.26c0,10.17-1.46,26.22-1.46,36.39c0.47,0.17,3.48,0.22,3.62-0.75c0.34-2.4,0.16-4.88,0.32-7.32
	c0.81-12.9-1.02-26.89-0.19-39.79c0.73,0.03,3.1-10.81,3.82-10.79c0,15.79,1.04,42.85,1.04,58.65c0.65,0.08,1.49-0.37,2.14-0.29
	c0.32-1.33,0.53-1.43,0.75-2.78c0.37-2.22,0.5-4.48,0.92-6.68c0.94-4.91-0.07-12.05-0.01-16.96c0.13-9.6-2.03-20.47-2.29-30.08
	l0.26-10.71c0.55,0.06,6.63-5.86,6.36,5c0.79,20.69,1.66,40.53,2.46,61.22c0.65,0.07,1.66-0.3,2.31-0.23
	c0.28-1.94,0.39-2.6,0.36-4.54c-0.32-19.89-0.73-39.78-1.13-59.66c-0.09-4.45,1.05-5.38,5.5-4.64c3.63,0.61,7.28,1.08,11.74,1.73
	c0,21.09-0.06,41.85-0.06,63.52c0.64,0.01,1.35,0.01,1.99,0.03c0-17.81,0-34.69,0-52.5c0.45-0.03,0.91-0.07,1.36-0.1
	c5.47,15.37,6.33,31.59,7.87,47.86c2.05-0.72,0.51-0.18,2.56-0.91c0-4.35,2.89-17.26,3.54-21.09c0.1,0-0.01,7.08,0.09,7.09
	c0.47,3.98,0.94,7.96,1.41,11.95c0.58,0.09,1.16,0.19,1.74,0.28c0.4-1.29,1.26-2.63,1.13-3.86c-0.73-6.78-1.81-13.52-2.54-20.29
	c-0.3-2.79-0.43-10.18-0.43-13.01c2.53,2.8,5.37,10.25,5.99,13.53c1.28,6.72,1.45,12.4,2.27,20.35c0.79-2.18,1.82-2.45,1.97-4.01
	c0.57-6,0.88-12.02,1.3-18.04c1.46-20.91,2.93-41.83,4.38-62.74c0.09-1.29,0.05-2.62-0.11-3.91c-0.59-4.57-2.67-8.34-7.47-9.07
	c-6.12-0.93-12.35-1.11-18.29-1.59c-0.2,0.33,0.11-0.43,0.63-0.99c8.89-9.55,23.99-8.13,30.62,2.99c1.74,2.92,3.46,6.02,4.32,9.27
	c3.13,11.78,6.38,23.57,8.65,35.53c2.39,12.61,2.73,21.69,3.74,30.21c0.85-0.7,1.79-1.41,2.1-2.12c1.97-4.6,4.29-7.41,5.79-12.17
	c1.34-4.28,2.84-8.84,2.59-13.18c-0.23-3.93,0.45-6.9,2.72-9.86c1.58-2.07,2.99-4.27,4.39-6.47c2.78-4.37,4.84-9.05,3.3-14.29
	c-0.78-2.68-0.24-4.39,1.36-6.55C304.95,262.65,308.07,257.03,304.03,251.97L304.03,251.97z M260.7,248.44
	c1.19,0.35,2.55,0.76,3.9,1.17c1.4,0.42,2.78,0.92,4.2,1.26c4,0.96,5.36-0.85,4.95-4.68c-0.5-4.65-4.13-8.05-9.77-8.55
	c-3.06-0.28-15.56-0.66-18.72-0.66c6.19-5.67,19.37-10.45,46.14,9.18c-1.62,0-5.05-0.76-6.88-0.76c3.36,4.96,2.47,6.16,5.38,10.78
	c1.82,2.88,3.41,5.93,4.78,9.05c5.2,11.82,3.55,19.97-5.75,29.66c-3.89-6.95-4.69-13.97-0.69-21.29c1.14-2.09,1.68-4.61,2.02-7
	c0.73-5.06-1.54-8.43-7.12-10.3c-2.76,7.63-2.3,15.3-1.12,22.97c1.44,9.32,3.35,18.57,4.48,27.92c0.71,5.92-0.8,11.57-5.52,16.5
	C277.33,297.5,276.85,271.1,260.7,248.44L260.7,248.44z M283.8,265.45c0.54,0.01,1.08,0.03,1.62,0.05c2.94,3.58,0.08,6.9-1.62,10.28
	C283.8,272.34,283.8,268.89,283.8,265.45L283.8,265.45z M246.3,229.72c0.48,0.48,0.96,0.97,1.44,1.45c0,0,0.01,0,0.01-0.01
	c0.06-0.01,0.12-0.02,0.18-0.04c1.07-0.6,2.4-1,3.07-1.9c5.3-7.05,12.27-4.16,18.79-3.94c0.11,0.52,0.22,1.04,0.34,1.57
	c-7.4,1.42-14.8,2.84-22.19,4.27c-0.05,0.03-0.1,0.05-0.15,0.08c-0.01-0.01-0.02-0.03-0.04-0.04c-2.08,1.62-4.11,3.28-6.79,5.47
	c1.88-9.71,16.93-22.21,24.12-20.06c-3.72,2.24-7.07,4.01-10.15,6.18C251.9,224.87,249.16,227.38,246.3,229.72L246.3,229.72z
	 M234.56,247.69c5.86-13.51,42.83-8.92,33.9,0.51c-4.8-2.06-8.65-3.83-13.26-4.08C250.69,243.87,240.16,245.91,234.56,247.69
	L234.56,247.69z M227,256.24c-1.36,2.88-2.89,3.11-5.7,2.52c-8.07-1.7-15.88-0.96-22.9,3.84c-1.42,0.97-2.63,2.26-4.02,3.47
	c3.73,5.62,9.66,0.64,14.31,4.08c-1.35,3.19-2.47,6.71-4.34,9.79c-0.7,1.16-3.54,2.21-4.69,1.7c-10.48-4.66-20.8-9.68-31.52-14.75
	c13.18-24.56,25.75-47.98,38.97-72.62c13.04,6.31,26.42,12.79,40.5,19.6c-3.07,6.62-5.81,12.78-8.78,18.83
	C234.97,240.59,230.75,248.3,227,256.24L227,256.24z M230.35,177.33c0-8.95,0.25-10.43,0.25-19.37c0.52,0,2.28-5.99,2.8-5.99
	c1.66,7.52,1.85,19.36-2.04,43.72C230.85,195.68,230.88,177.33,230.35,177.33L230.35,177.33z M204.29,137.88c0-4.94,0-9.88,0-15.73
	c5.6,3.99,6.46,35.34,2.12,47.1c-0.77-5.43-1.3-9.8-2.02-14.13c-0.71-4.24-1.61-8.45-3.02-12.64c-4.62,5.86-5.09,12.69-5.89,19.36
	c-1.76,14.71-0.43,26.19,2.88,36.64c-0.18,1.56-10.2,19.36-10.96,22.18c0.11-3.29-3.15-2.08-2.93-5.86
	c0.82-14.28,4.67-36.37,4.97-47.67c0.21-7.98,1.26-15.49,1.15-23.47c-0.04-2.9-0.54-5.86-1.33-8.65c-0.33-1.17-1.96-1.97-3-2.94
	c-0.79,1.37-2.15,2.7-2.28,4.13c-0.67,7.19-1.01,14.41-1.47,21.62c-0.55,6.84-2.04,28.64-3.86,34.42
	c-1.37-12.92,1.95-56.81,5.7-68.87c5.54,0,10.36,0,15.67,0c0.93,4.8,1.86,9.64,2.8,14.48C203.31,137.87,203.8,137.87,204.29,137.88
	L204.29,137.88z M199.44,91.04c4.56,6.09-2.41,9.71-3.22,14.64c-0.38-0.2-0.75-0.4-1.13-0.6c-2.26,1.99-4.93,3.69-6.68,6.07
	c-1.84,2.49-3.24,4.46-6.86,4.26c-2.27-0.13-4.63,1.2-7.93,2.16c-1.13-4.73-2.26-9.49-3.4-14.25c-0.27-0.12-0.54-0.24-0.81-0.36
	c-0.38,2.12-0.89,4.22-1.12,6.35c-0.25,2.26-0.23,4.54-0.33,6.81c-0.59,0.09-1.17,0.19-1.75,0.28c-0.92-2.44-1.94-4.85-2.73-7.33
	c-0.64-2.01-0.48-4.47-1.6-6.09c-4.17-6.06,0.67-10.86,1.25-16.22c0.79-0.58,1.63-1.12,2.42-1.7c0,0,4.89-1.53,10.24,0.26
	c2,3.7,4.17,6.15,5.71,9.62c1.55,3.49,2.6,7.2,3.93,10.98c0.73-0.54,1.12-0.68,1.14-0.86c0.48-4.09-5.43-18.33-8.35-20.89
	c-2.7-2.36-5.08-2.38-7.78-2.08c-1.14,0.12-1.15-0.4-3.28,0c-0.92,0.17-4.38,0.83-5,2.25c-1.26,2.88-2.02,5.98-3.97,8.73
	c0.33-1.89,0.3-3.93,1.06-5.62c1.39-3.09,2.73-7.95,5.02-8.55c6.17-1.63,13.27-3.22,17.49,4.56c2.49,4.58,5.29,8.98,7.67,12.97
	c3.31-7.72,7.12-16.59,11.45-26.69c2.26,6.78,1.46,16.56-0.99,20.54C199.73,90.52,199.37,90.95,199.44,91.04L199.44,91.04z
	 M210.69,43.05c-0.36,3.4-1.37,5.29-5.26,4.5c-14.92-3.03-30.32-4.1-45.56-3.28c-0.07,0-0.11,0.02-0.14,0.04
	c0.03-0.12,0.05-0.36,0.01-0.85c-0.23-1.72-0.77-2.73-1-4.42C167.91,35.51,198.44,38.07,210.69,43.05L210.69,43.05z M207.26,37.19
	c-0.54-0.24-1.08-0.48-1.62-0.72c1.41-3.18,2.82-6.36,4.24-9.53C212.94,31.88,211.7,35.14,207.26,37.19L207.26,37.19z M202.6,27.69
	c0.47,0.04,0.94,0.08,1.41,0.12c-0.14,2.95-0.27,5.9-0.43,9.27c-1.84-0.16-3.38-0.29-5.62-0.48
	C199.69,33.28,201.15,30.49,202.6,27.69L202.6,27.69z M194.41,35.94c-3.9-4.95-3.63-7.23,1.42-12.44
	C199.91,28.17,197.63,32.09,194.41,35.94L194.41,35.94z M183.4,34.64c1.23-3.93,2.33-7.41,3.42-10.89c0.31,0.02,0.61,0.04,0.92,0.06
	c0.41,3.5,0.83,7,1.28,10.82C187.2,34.64,185.54,34.64,183.4,34.64L183.4,34.64z M178.13,34.69c-4.41-3.48-4.04-6.4,1.93-13.45
	C183.9,26.73,183.25,30.74,178.13,34.69L178.13,34.69z M167.56,34.78c0.5-3.3,0.95-6.36,1.41-9.42c0.39-0.06,0.78-0.12,1.17-0.18
	c1.16,3.07,2.31,6.13,3.61,9.6C171.38,34.78,169.65,34.78,167.56,34.78L167.56,34.78z M161.75,23.44c2.89,3.42,6.11,6.48,2.08,11.39
	C159.32,32.91,159.01,31.19,161.75,23.44L161.75,23.44z M158.02,62.44c1.28-0.25,5.41-1.37,5.78,0c0.36,1.32-0.09,2.39-1.1,2.39
	c-1.08,0-2.76,0.01-3.97,0.01C158.74,64.53,157.94,62.75,158.02,62.44L158.02,62.44z M158.37,80.8c-0.42-2.73,0.01-6.72-0.4-9.35
	l-0.48-3.48C169.55,64.45,162.34,77.03,158.37,80.8L158.37,80.8z M158.39,56.43c0.53-0.27,5.07,0.63,5.81,1.36
	C163.05,58.77,157.47,56.91,158.39,56.43L158.39,56.43z M158.35,54.46c0.37-2.13,0.74-4.26,1.3-7.51
	c12.24-0.41,22.93-0.41,36.56,1.94c1.16,0.08,2.87,2.7,3.06,4.3c1.61,13.51-3.85,25.06-10.12,35.83
	c-5.02-5.94-10.04-11.87-15.05-17.79c-0.3,0.14-0.6,0.28-0.9,0.42c0.22,0.9,0.43,1.79,0.74,3.04c-2.6,0.44-5.06,0.86-7.66,1.3
	c0.38-4.59,1.06-9.06,1.05-13.53C167.32,57.07,165.67,55.77,158.35,54.46L158.35,54.46z M209.14,59.48
	c-1.27,2.96-3.17,7.04-7.04,7.92c0-2.67,0.93-9.11,0.93-17.14c2.34,0.65,3.9,0.85,6.81,1.66C209.84,53.33,210.72,55.79,209.14,59.48
	L209.14,59.48z M174.85,153.98c0.34-2.37,0.72-4.74,1-7.13c0.29-2.43,0.31-4.89,0.74-7.29c0.44-2.46,1.22-4.86,2.59-7.18
	c-0.91,22.08-5.04,44.04-1.23,66.09c0.49,0.1,0.97,0.2,1.46,0.3c0.79-3.46,1.95-6.89,2.29-10.39c1.16-11.83,2-23.7,3.04-35.55
	c0.16-1.86,1.66-11.48,2.66-13.24c1.22,26.2-2.54,59.81-7.79,85.43c-3.05-23.49-8.2-41.69-11.58-62.74
	c-1.62-10.06-4.46-19.88-4.94-30.06c-7.18,4.68-1.83,22-3.73,27.13c-1.66-4.04-8.92-13.38-6.12-23.33
	c1.97-6.97,3.36-15.49,7.01-21.03c5.81,2.44,5.75,6.81,5.73,14.7c-0.01,1.94,0.45,3.88,0.7,5.82c0.41-0.04,0.81-0.08,1.22-0.12
	c0.29-3.64,0.06-8.46,0.38-12.5c3.23,0,6.75-1.15,9.69-1.15C175.69,131.65,170.08,143.44,174.85,153.98L174.85,153.98z
	 M122.32,250.91c-17.26-23.36-17.26-27.95-7.32-38.91c1.28,3.57,0.72,16.68,1.26,19.2c1.54,7.2,7.88,15.23,15.05,16.21
	c4.24,0.59,8.42,0.47,12.61,1.5c1.5,0.37,4.62-1.95,14.16-1.99c6.48-1.37,3.37,1.04,9.82-0.45c-11.98,9.66-25.84,13.41-40.78,13.66
	c-1.2,0.02-2.71-1.01-3.57-1.99c-2.24-2.55-4.21-5.34-6.77-8.67C118.83,250.01,120.1,250.34,122.32,250.91L122.32,250.91z
	 M150.31,201.42c1.73-2.9,6.8-1.51,8.41,3.7c3.44,11.07,9.45,33.35,7.49,39.04C158.92,231.05,155.05,215.28,150.31,201.42
	L150.31,201.42z M150.66,211.32c2.46,7.58,4.91,15.16,7.71,23.79c-6.37,0.79-11.6,1.45-16.94,2.11
	C137.22,225.82,147.63,220.07,150.66,211.32L150.66,211.32z M118.4,225.63c-0.23-7.49,0.68-15.36,2.91-22.49
	c4.05-12.95,9.46-25.48,14.65-39.09c1.35,3.81,2.49,7,3.82,10.74c-6.06,3.8-7.76,7.54-7.61,13.27c0.2,8.18-1.79,15.74-4.69,23.26
	c-1.45,3.76-2.3,7.79-3.03,11.76c-1.51,8.16,6.44,17.92,14.71,16.57c5.1-0.83,10.32-0.93,15.49-1.2c1.72-0.09,3.48,0.32,5.22,0.51
	c-0.02,0.62-0.03,1.25-0.05,1.87c-7.56,3.87-15.73,4.4-24,3.38C123.79,242.74,118.78,237.91,118.4,225.63L118.4,225.63z
	 M148.39,172.99c1.21-0.48,3.78,1.05,5.23,2.05c-6.22-1.03-10.11,4.29-14.95,5.82c0.24,0.66,0.24,0.65,0.49,1.31
	c3.31-1.3,6.62-2.59,11.04-4.32c3.3,0.89,2.54-0.37,4.45,3.44c-1.45,0.53-5.4,0.76-8.54,1.91c-2.45,0.9-4.93,2.87-6.32,3.38
	c0.03,0.46,0.06,0.91,0.1,1.37c1.96-0.09,4.38-0.59,5.71-1.56c4.59-1.76,7.23-1.86,9.56,1.06c0.94,1.17,1.12,4.65,1.81,6.4
	c-3.64-5.35-8.14-4.62-12.82-2.39c-0.91,0.43-1.55,1.42-2.32,2.15c0.9,0.76,3.2-0.34,4.28-0.46c3.98-0.46,3.77,0.17,4.84,0
	c3.19-0.51,5.02,4.29,6.25,5.61c-1.52,0.42-4.46-2.17-7.9-0.89c-1.97,0.73-4.07,6.48-3.43,7.57c2.92,4.99,0.06,8.3-2.38,11.93
	c-2.6,3.85-7.49,9.61-8.51,18.45c-6.68-1.91-9.52-9.69-4.76-21.41c1.87-6.63,4.11-9.37,4.29-14.96c0.05-1.61-0.31-3.24-0.34-4.86
	C133.89,181.82,136.48,177.74,148.39,172.99L148.39,172.99z M150.11,155.96c0.51-3.3,0.14-4.25,1.91-7.71
	c2.43,9.13,2.62,6.52,8.48,16.97c0.91-0.15,1.91-2.29,1.83-4.55c-0.65-10.83-0.57-9.45-1.22-20.27c6.3,29.49,8.96,59.34,9.92,89.36
	c-0.42,0.19-0.85,0.38-1.27,0.57c-0.98-1.56-2.43-3-2.87-4.7c-2.02-7.8-3.87-15.65-5.55-23.53c-1.1-5.19-1.74-10.49-2.69-15.71
	c-0.71-3.9-1.48-7.8-2.44-11.64c-0.3-1.2-1.04-2.66-2.02-3.25C147.71,167.59,149.21,161.7,150.11,155.96L150.11,155.96z
	 M168.94,234.6c4.09-1.32,7.67-5.34,10.35-6.2c0.15,0.22,2.58-4.87,4.79-6.12c2.32-1.31,2.9-0.12,3.05,0.11
	c-1.32,0.88-7.06,15.36-11.59,21.98c-1.31,1.92-3.09,6.21-4.2,6.41c-1.6,0.29-1.46-2.29-2.05-1.99
	C168.84,249.02,170.64,235.95,168.94,234.6L168.94,234.6z M172.1,193.77c0.47,5.06,4.89,28.21,5.35,33.27
	c-0.65,0.06-3.43,2.36-4.08,2.42c-0.36-5.1-0.66-7.39-1.02-12.49C172.9,216.95,171.56,193.79,172.1,193.77L172.1,193.77z
	 M211.84,134.5c8.95,9.18,6.98,48.4,4.62,60.62c-2.89-1.33-5.53-3.14-8.4-3.69c-2.76-0.52-4.86,0.42-8.43,5.01
	c-3.31-13.77-1.44-35.01,0.76-47.41c0.48-0.03,1.49,5.84,1.97,5.81c0.66,10.61,1.8,21.19,2.46,31.8c0.46,0.18,0.92,0.36,1.38,0.54
	c0.87-2.44,2.24-4.83,2.53-7.34C210.13,167.88,210.61,146.67,211.84,134.5L211.84,134.5z M246.57,259.42
	c5.52,2.64,7.61,7.68,7.46,13.09c-0.31,11.02-1.44,22.01-2.27,33.01c-0.19,2.59-0.53,5.16-1.19,7.78
	C246.37,295.67,253.56,277.07,246.57,259.42L246.57,259.42z M241.1,258.6c5.39,4,6.11,10.37,6.14,16.69
	c0.04,11.24-0.56,22.48-0.59,33.72c-0.01,5.82,0.62,11.65,0.31,17.75c-1.13-4.33-3.02-8.62-3.25-13c-0.6-11.2-0.52-22.44-0.59-33.66
	c-0.02-3.74,0.72-7.52,0.39-11.22C243.19,265.39,241.93,261.98,241.1,258.6L241.1,258.6z M237.36,284.14
	c4.99,19.74-0.52,48.11-1.28,68.02c-1.11-8.31-1.88-16.68-3.44-24.9c-1.38-7.3-2.92-14.74-5.74-21.56
	C224.6,300.13,232.35,287.89,237.36,284.14L237.36,284.14z M190.07,285.83c2.11,1.48,3.42,2.4,4.04,2.84
	c11.18-2.48,15.42-10.64,17.95-20.57c-1.34-0.21-2.68-0.43-4.05-0.64c-0.08-1.62-0.14-2.96-0.21-4.4c-2.84,1.52-5.39,2.89-7.95,4.26
	c3.88-8.56,12.54-8.82,35.15-1.56c-0.85-2-1.46-3.45-2.07-4.89c5.01-1.11,7.13,0.39,7.44,4.91c0.41,5.98-0.14,11.31-4.97,15.9
	c-3.48,3.31-5.85,7.78-8.86,11.62c-1.1,1.41-2.08,2.46-4.66,1.34c-1.93-0.84-4.93,0.81-7.47,1.28c-2.71,0.5-5.44,0.91-8.16,1.36
	c-0.12-0.59-0.23-1.18-0.35-1.77c3.76-0.82,7.52-1.63,11.27-2.45c-0.06-0.37-0.12-0.74-0.17-1.11c-3.02,0.49-6.07,0.85-9.05,1.52
	c-2.97,0.66-5.88,1.64-9,1.83c3.13-4.39,7.7-5.09,12.35-5.69c3.65-0.48,4.36-2.02,2.54-6.8c-0.44,5.29-3.7,5.29-7.14,5.64
	c-2.35,0.24-4.54,1.7-6.88,2.33c-2.84,0.77-5.77,1.26-8.91,1.92C190.6,290.08,190.41,288.51,190.07,285.83L190.07,285.83z
	 M164.15,270.07c0.21-0.58,0.42-1.16,0.64-1.74c10.64,5.14,21.29,10.28,32.01,15.46C193.18,285.82,175.85,278.48,164.15,270.07
	L164.15,270.07z M150.83,316.55c3.56-7.27,6.57-14.29,10.48-20.77c0.92-1.52,4.9-1.18,7.47-1.7c0.45,2.3,1.82,4.92,1.16,6.82
	c-1.39,3.99-3.86,7.61-5.89,11.38c-0.63-0.38-1.26-0.76-1.89-1.14c1.5-2.42,3-4.85,4.96-8.03c-4.52,0.11-7.48,0.12-8.76,4.89
	C157.48,311.34,159.13,317.37,150.83,316.55L150.83,316.55z M144.02,318.05c0.32,1.85,0.63,3.71,0.71,4.19
	c-3.95,4.14-7.22,7.57-10.5,11c0.98,0.93,1.96,1.85,2.94,2.78c1.61-3.17,3.22-6.33,4.83-9.49c0.53,0.53,1.05,1.06,1.58,1.59
	c1.45,9.1-6.09,19.3-14.97,19.4c-1.9,0.02-5.09-2.73-5.53-4.69c-1.24-5.48-1.55-11.2-1.83-16.85c-0.14-2.78-0.51-4.7-3.22-6.35
	c-2.21-1.35-4.11-3.81-5.24-6.2c-2.26-4.79-3.9-9.88-5.8-14.84c0.34-0.39,0.68-0.79,1.01-1.18c2.1,1.65,4.53,3.01,6.21,5.01
	c2.07,2.47,3.46,5.5,5.25,8.22c4.78,7.33,9.58,8.54,16.07,2.81c7.66-6.76,14.91-14.07,21.71-21.7c4.7-5.28,10.34-6.38,16.62-5.88
	c2.01,0.16,3.9,1.85,5.84,2.84c-0.93,1.6-1.85,3.2-2.73,4.72c-2.53-1.1-4.48-2.4-6.59-2.79c-6.66-1.22-11.23,0.99-14.09,7.23
	c-2.29,5-5.2,8.42-10.47,11.07c-4.56,2.29-8.59,7.11-11.05,11.77c-3.98,7.54-6.49,15.86-9.61,23.81c7.03,3.22,13.74-1.7,14.55-11.4
	c-3.55,4.07-6.36,7.28-9.89,11.32c0.54-14.89,9.49-30.1,20.45-33.39c-1.58,2.55-3.16,5.09-4.75,7.64
	C145.04,318.48,144.53,318.26,144.02,318.05L144.02,318.05z M129.74,313.43c-0.9,0.65-4.08-0.66-5.32-1.93
	c-2.67-2.74-4.77-6.05-7.69-9.9c6.13,0.97,9.7,7.01,15.58,3.79c4.35-2.38,8.77-4.65,13.15-6.97c0.37,0.51,0.74,1.02,1.11,1.54
	C141.01,304.5,135.57,309.23,129.74,313.43L129.74,313.43z M117.63,321.91c1.6,0.88,1.14,3.73,1.35,5.66
	c0.22,2.04,0.05,4.12,0.05,7.56c-11.12-12.11-16.45-31.8-21.36-45.39c0.42-0.17,4.16,2.72,4.59,2.55
	c1.88,3.91,1.63,10.55,3.99,14.15C109.75,311.79,112.45,319.07,117.63,321.91L117.63,321.91z M94.1,287.2
	c2.64,6.61,11.57,32.86,14.5,39.34c2.23,4.93,4.02,10.42,10.01,12.51c0.64,0.23,1.02,1.52,1.31,2.39
	c2.54,7.75,7.46,10.19,15.05,6.94c3.22-1.38,6.08-3.62,9.2-5.52c-1.35,4.43-3.5,7.55-8.98,8.28c-16.54,2.19-20.69,0.2-26.6-15.42
	c-3.54-9.36-10.16-31.82-13.21-41.37C95.78,294.22,93.68,287.32,94.1,287.2L94.1,287.2z M124.11,122.66
	c1.51,5.98,3.95,8.75,1.68,14.43c-4.47,11.18-10.25,24.47-13.93,35.91c-7.71,24-14.7,48.24-21.97,72.39
	c-0.13,0.44-0.02,0.95-0.02,1.82c1.27-0.33,2.4-0.62,3.52-0.9c4.32,16.67,14.15,24.04,26.43,18.86c-2.56-3.24-4.98-6.29-7.4-9.35
	c-0.47,0.31-0.94,0.62-1.41,0.92c1.43,2.51,2.87,5.01,4.37,7.64c-14.11,0.2-20.04-11.89-18.84-20.94c0.51-3.83,2.95-5.51,4.59-9.86
	c-1.87,0.6-5.84,7.98-8.5,8.84c5.61-20.05,29.28-67.55,39.43-90.71c0.6,0.2,1.44,5.15,2.04,5.35c-0.33,1.74-1.36,5.89-1.78,7.61
	c-6.63,15.46-12.52,35.42-22.16,49.75c-4.54,6.75-4.95,13.94-0.58,21.16c1.31,2.16,2.22,4.56,2.62,7.37
	c-0.99-0.82-1.98-1.63-2.96-2.44c-6.98,6.05-7.43,14.11-1.34,18.12c-0.4-4.45-0.82-9.07-1.23-13.69c0.73-0.27,1.47-0.55,2.2-0.82
	c1.98,2.58,4.23,5,5.9,7.77c6.62,10.92,11.32,13.4,23.81,10.16c7.82-2.03,15.25-5.53,22.85-8.41c2.36-0.9,4.68-1.9,7.03-2.85
	c0.24,0.5,0.48,1.01,0.71,1.51c-3.95,1.99-7.72,4.59-11.89,5.85c-11.83,3.57-23.83,6.59-35.75,9.85c-2.17,0.59-4.31,1.31-6.83,2.08
	c-1.76,2.32-1.76,2.32,4.87,1.3c10.54-3.25,22.2-5.83,32.63-9.43c2.1-0.73,17.17-8.09,19.75-7.93l-4.45,9.46
	c0,0-5.48,2.04-11.22,3.82c-6.12,2.29-16.19,10.61-20.51,14.97c-3.15,3.18-13.01,4.08-15.99,0.69
	c-8.88-10.14-18.95-18.82-30.84-25.28c-2.09-1.14-4.27-2.1-6.65-3.25c2.92,19.74,20.6,31.5,49.27,33.06
	c-1.46,3.84-3.3,6.5-8.12,3.29c-0.29,0.39-0.58,0.78-0.87,1.17c1.35,2.46,2.7,4.92,4.44,8.1c9.05-14.49,18.38-27.05,33.44-33.03
	c1.65,3,3.06,5.59,4.67,8.53c-9.48,4.38-21.88,5.33-30.14,16.49c2.19-0.64,3.56-0.61,4.12-1.27c5.44-6.4,13.25-7.93,20.66-10.3
	c1.39-0.44,2.92-0.7,4.14-1.45c5.47-3.36,10.14-1.46,15.35,2.46c-3.78,0.59-7,0.98-10.17,1.61c-11.65,2.3-21.69,8.18-30.77,15.38
	c-6.09,4.83-11.06,5.23-17.84,1.44c-16.41-9.17-31.35-19.96-42.68-35.14c-1.21-1.63-1.81-4.6-1.25-6.54
	c6.23-21.59,12.48-43.17,23.54-62.99c3.5-6.27,4.59-13.33,3.25-20.38c-0.45-2.36-2.85-4.34-4.35-6.5c-1.8,1.91-4.64,3.58-5.16,5.79
	c-1.05,4.53-1.11,9.35-1.12,14.05c-0.02,13.13-5.39,24.84-9.36,38.39c-2.95-37.47,9.63-80.81,34.54-99.78
	C119.57,125.54,122.34,123.68,124.11,122.66L124.11,122.66z M98.01,170.94c4.08,8.94,1.43,16.3-1.92,23.61
	C95.63,187,93.29,179.33,98.01,170.94L98.01,170.94z M90.09,263.6c6.56,0.26,19.96,11.65,25.71,19.44
	C106.39,283.63,92.3,272.97,90.09,263.6L90.09,263.6z M129.95,150.76c-2.41,5.51-5.56,10.7-7.91,16.22
	c-6.07,14.23-11.87,28.56-17.78,42.85c-0.99,2.39-2.01,4.76-3.01,7.14c-0.45-0.2-0.9-0.4-1.34-0.6
	c9.24-25.67,18.47-51.34,27.9-77.54C131.13,142.45,131.81,146.51,129.95,150.76L129.95,150.76z M127.18,116.21
	c0.15,0.09-2.12,3.91-6.22,2.97c-3.58-0.82-2.64-5.03-2.02-7.56c0.57-1.79,1.04-1.91,1.7-2.12
	C121.54,111.62,124.72,114.68,127.18,116.21L127.18,116.21z M128.29,113.71c-3.83-2.85-10.37-4.98-4.17-11.52
	C132.42,102.98,130.67,107.63,128.29,113.71L128.29,113.71z M133.6,123.46c2.98,9.94,5.89,19.91,8.95,29.83
	c1.1,3.56,2.69,6.97,3.76,10.54c0.88,2.91,1.41,5.97-2.05,8.62c-7.41-16.91-13.52-33.71-16.1-51.64
	C131.48,119.07,132.8,120.77,133.6,123.46L133.6,123.46z M138.49,113.46c-0.42,0.42-2.3,2.15-3.83,2.32
	c-1.68-0.17-2.64-0.34-3.57-1.27c0.47-2.04,0.76-3.92,1.19-5.78c0.48-0.17-0.22-3.4,0.26-3.57
	C133.91,107.02,140.44,109.49,138.49,113.46L138.49,113.46z M152.22,104.68c-2.83,7.96-8.13,25.68-10.96,33.65
	c-0.39-0.01-0.89-7.02-1.28-7.02c-1.48-4.24-2.96-8.49-4.19-12.01c5.5-3.26,7.63-9.05,11.22-13.3
	C147.88,106.47,151.34,104.2,152.22,104.68L152.22,104.68z M157.96,113.19c-6.69,11.99-8.88,24.98-9.81,38.36
	c-0.05,0.76-0.54,1.48-1.33,3.51c-1.36-5.85-3.96-9.86-2.06-15.35c2.81-8.1,4.41-16.61,6.76-24.88c1.23-4.33,2.96-8.51,4.66-13.34
	C159.95,105.53,159.85,109.8,157.96,113.19L157.96,113.19z M156.55,61.58l0.51-2.81l6.12,1.4c0,0-2.04,0.15-3.95,0
	C157.32,60.03,156.55,61.58,156.55,61.58L156.55,61.58z M153.69,23.72l5.16,1.49c-0.25,0.64-0.45,1.22-0.56,1.72
	c-0.3,0.05-0.72,5.48,1.45,7.39c0.87,0.77-2.03,1.13-2.17,1.15C156.77,34.27,154.35,29.03,153.69,23.72L153.69,23.72z M218.46,27.28
	l-4.61,0.97c-0.59-1.06-1.48-2.4-2.25-3.25c-0.54-0.59-1.96-1.72-3.09-2.59c-0.22,1.33-0.59,3.63-1.61,4.26c0,0-2.65-5.35-2.8-5.12
	c-0.66,1.05-3.03,3.77-3.82,4.86c-3.9-6.14-3.71-6.62-9.18-1.66c-0.95-2.06-1.74-5.45-2.72-7.57c-1.47,1.4-2.71,4.65-4.29,6.17
	c-0.87-1.21-2.2-4.58-4-7.07c-2.14,3.23-3.91,5.93-6.15,9.31c-0.99-2.22-2.92-4.94-3.87-7.08c-0.2-0.45-2.55,3.31-3.7,6.25
	c-0.4,1.04-4.84-5.83-5.02-6.25c-0.33,1.43-0.94,2.96-1.54,4.4c-0.82-0.3-2.71-0.98-4.04-1.41c1.79-0.98,3.9-2.17,5.58-2.99
	c10.23-3.71,29.08-4.79,45.83,2.4l1.12,0.48c0.13,0.06,0.26,0.11,0.39,0.17c0,0.01-0.01,0.03-0.01,0.04l2.4,1.3
	c0,0,3.87,1.93,5.81,3.17C217.74,26.61,218.21,26.95,218.46,27.28L218.46,27.28z M210.55,38.2c0,0,4.06-4.66,3.69-7.65l4.36-1.54
	c-0.4,1.71-5.42,10.25-5.42,10.25L210.55,38.2L210.55,38.2z M204.66,69.93c4.83,0.74,5.18-6.25,6.43-9.02
	c3.03,3.54-4.08,8.88-4.29,13.87C203.96,75.24,204.76,72.15,204.66,69.93L204.66,69.93z M213.62,112.94
	c-8.14,1.33-16.84,1.8-25.46,3.21c7.14-4.42,11.32-10.18,15.79-15.02c1.29,3.45,1.63,5.2,7.89,4.49
	C212.31,105.56,212.74,111.18,213.62,112.94L213.62,112.94z M220.28,118.5c-11.95,2.67-35.94,4.88-38.75,0.71
	c10.72-1.3,23.54-2.46,34.47-3.78c-0.24-3.48-0.36-5.33-0.49-7.19c0.42-0.07,0.83-0.15,1.25-0.22
	C217.45,110.97,219.46,114.98,220.28,118.5L220.28,118.5z M277.64,189.57c-7.14-9.18-9.4-15.9-11.47-19.25
	c0.73-0.43,4.33,0.38,4.46,1.66l6.63,11.6C276.7,183.91,278.2,189.23,277.64,189.57L277.64,189.57z M283.6,212.66
	c-0.1,0.6-0.31,1.19-0.61,2.32c-8.38-4.66-14.32-14.09-25.87-12.57c2.51-1.4,4.97-2.9,7.54-4.16c2.72-1.33,5.54-2.44,8.87-3.88
	c-3.95-6.24-9.95-2.55-14.47-4.29c-2.14-5.9-2.87-6.27-9.3-4.1c-6.31,2.13-10.05,6.94-12.82,12.68c-0.9,1.87-1.75,3.76-2.62,5.65
	c-0.5-0.01-1.01-0.03-1.51-0.04c0-1.91-0.23-3.84,0.04-5.71c1.37-9.82,3.25-19.59,4.2-29.45c0.7-7.25-0.16-14.53-3.64-21.16
	c-0.55-0.09-1.1-0.17-1.64-0.26c-1.03,4.62-2.79,9.21-2.94,13.85c-0.3,9.1,0.44,18.23,0.43,27.35c-0.01,3.8-0.84,7.6-1.29,11.3
	c-6.41-0.53-6.48-4.74-6.91-8.87c-1.94-18.79,0.3-27.58-1.78-46.36c-0.83-7.49-10.75-20.59-11.03-22.18
	c3.21-2.24,14.71,2.17,14.86-5.93c1.58,3.79,3.15,7.58,4.93,11.83c2.85-4.29,0.5-7.29-1.34-10.18c-1.91-2.99-4.2-5.74-6.59-8.94
	c1.36,0,2.36-0.26,3.15,0.04c19.98,7.4,34.41,20.41,41.54,40.94c2.59,7.46,5.75,14.73,7.93,22.45c-0.69-1.15-1.11-2.71-2.12-3.34
	c-1.45-0.9-3.32-1.1-5-1.61c-0.24,1.53-1.21,3.5-0.6,4.53c3.54,5.99,5.01,13.55,11.29,17.58
	C283.32,194.67,285.02,203.9,283.6,212.66L283.6,212.66z M298.54,265.72c-1.44-2.43-2.7-4.36-3.76-6.39
	c-1.05-2.01-1.91-4.14-2.9-6.33c4.8-3.15,0.88-6.84,0.55-10.35c-0.04-0.04-0.08-0.07-0.12-0.11c-0.05-0.08-0.09-0.15-0.14-0.23
	c-3.7-2.09-7.3-4.38-11.13-6.17c-3.78-1.77-7.82-2.99-11.75-4.45c0.09-0.59,0.18-1.18,0.27-1.78c3.68,0.35,7.37,0.71,11.61,1.12
	c-2.83-8.51-10.55-8.11-17.8-9.76c1.22-0.8,2.01-1.43,2.89-1.87c0.97-0.48,2.02-0.77,3.02-1.15c-2.06-6.61-2.49-6.62-18.64-0.68
	c-0.26-9.82-10.52-7.85-15.11-13.5c5.69-4.49,7.44-13.81,17.34-15.51c-0.54,2.53-0.96,4.48-1.58,7.4c5.04-1.36,9.39-2.55,13.75-3.73
	c0.21,0.41,0.42,0.82,0.63,1.23c-6.34,4.28-12.68,8.57-19.02,12.85c0.29,0.74,0.58,1.48,0.87,2.22c2.15-0.38,4.58-0.24,6.39-1.23
	c5.25-2.86,9.73-2.3,14.3,1.49c4.37,3.62,9.57,6.35,13.55,10.32c3.12,3.11,4.94,7.52,7.34,11.36c-0.53,0.3-1.05,0.59-1.58,0.89
	c-1.28-2.76-2.31-5.69-3.96-8.21c-0.77-1.17-2.75-1.55-4.17-2.3c0.21,1.42-0.03,3.14,0.69,4.21c3,4.46,6.31,8.7,9.45,13.06
	c0.96,1.33,1.78,2.78,2.65,4.18c0.08,0.04,0.16,0.09,0.24,0.14c0,0.07,0.02,0.13,0.02,0.2C301.09,250.04,302.83,256,298.54,265.72
	L298.54,265.72z M172.23,60.5c1.82,1.05,3.88,0.45,4.97,1.08c-0.42,0.17-1.81,1.57-2.23,1.74c0.61,2.36,0.61,5.15,1.95,6.98
	c2.34,3.2,5.81,3.76,8.86,2.54c-2.55-1.37-5.19-2.79-8.72-4.68c4.75-2.38,9.84,1.83,12.69-4.16c-1-2.42-7.2-2.42-8.3-4.78
	c2.72-0.44,6.88-1.14,10.09-0.05c-2.85-4.68-11.71-6.38-16.7-3.23C173.53,56.76,173.07,58.94,172.23,60.5L172.23,60.5z
	 M177.24,63.45c0,0,0.13-0.07,0.32-0.18c0.58-0.33,1.75-0.98,1.85-0.97c1.39,0,5.48,0.78,5.49,1.01c0,0.11,0,0.3,0,0.54
	c0,0.71-0.01,1.76-0.29,1.77c-0.39,0.02-0.95,0.02-1.6,0.02c-1.95,0-4.62-0.07-5.36-0.12c0.04-0.04,0.04-0.16,0.01-0.32
	c-0.06-0.33-0.23-0.84-0.33-1.25C177.27,63.76,177.24,63.58,177.24,63.45L177.24,63.45z M175.11,58.77
	c-0.14-2.68,6.18-3.13,5.98-2.59c-0.39,1.03-4.05,1.4-5.29,2.04L175.11,58.77L175.11,58.77z M175.63,87.36
	c-2.17-1.6-7.37-0.24-10.72-0.69l0.29,1.37c5.57-0.44,0.96,4.35,5.42,4.18C169.02,88.83,173.23,89.97,175.63,87.36L175.63,87.36z
	 M172.92,96.68c-1.64-0.65-2.3-0.04-5-0.69c-0.16,2.47,1.03,3.62,3.57,3.46C171.86,98.43,172.55,97.7,172.92,96.68L172.92,96.68z"/>
<path d="M345.72,317.64c0,0-4.73-5.94-6.94-7.04c-1.92-0.96-8.51-1.13-8.51-1.13l0.23-0.47c0,0,3.44,0.37,4.55,0.09
	c1.95,0.05,5.78-1.58,5.94-3.39c0.18-2.06-1.78-3.51-3.15-4.18c-2.76-1.34-8.43-0.4-8.43-0.4s7.31,1.83,7.11,3.99
	c-0.12,1.36-4.84,2.62-4.84,2.62l-1.22-1.74l-0.16,1.54l-1.82-1.92l2.86-0.61l-1.21-1.84l-3.42,1.03l3.13,4.31l-0.29,0.62
	c0,0-1.4-2.68-2.26-3.1c-1.28-0.64-5.7,0.08-5.7,0.08l0.04,0.02c0,0,2.22,3.89,3.51,4.48c0.87,0.4,3.84-0.19,3.84-0.19l-0.29,0.62
	l-5.32,0.27l1.34,3.31l2.19-0.22l-1.32-2.61l2.64,0.21l-1.1,1.1l2.12-0.14c0,0,1.92,4.47,0.94,5.42c-1.55,1.51-7.51-3.04-7.51-3.04
	s2.82,5,5.6,6.31c1.38,0.65,3.74,1.26,5.23-0.17c1.31-1.26-0.03-5.44-1.08-6.75c-0.48-1.04-2.93-3.49-2.93-3.49l0.22-0.47
	c0,0,4.27,5.02,6.22,5.92c2.25,1.03,9.84,0.98,9.84,0.98"/>
<path d="M32.27,327.8c0,0,4.73-5.94,6.94-7.04c1.92-0.96,8.51-1.13,8.51-1.13l-0.23-0.47c0,0-3.44,0.37-4.56,0.09
	c-1.95,0.05-5.78-1.58-5.94-3.39c-0.18-2.06,1.78-3.52,3.15-4.18c2.76-1.34,8.43-0.4,8.43-0.4s-7.31,1.83-7.11,3.99
	c0.13,1.36,4.84,2.62,4.84,2.62l1.22-1.74l0.16,1.55l1.82-1.92l-2.86-0.61l1.21-1.84l3.42,1.03l-3.13,4.31l0.3,0.62
	c0,0,1.4-2.68,2.26-3.11c1.27-0.64,5.7,0.08,5.7,0.08l-0.04,0.02c0,0-2.22,3.89-3.51,4.48c-0.87,0.4-3.84-0.19-3.84-0.19l0.29,0.62
	l5.32,0.27l-1.34,3.31l-2.19-0.21l1.32-2.61l-2.64,0.21l1.1,1.1l-2.12-0.14c0,0-1.92,4.47-0.94,5.42c1.56,1.51,7.51-3.04,7.51-3.04
	s-2.82,5-5.6,6.31c-1.38,0.65-3.74,1.26-5.23-0.17c-1.31-1.26,0.03-5.44,1.08-6.75c0.48-1.04,2.93-3.49,2.93-3.49l-0.22-0.47
	c0,0-4.27,5.02-6.22,5.92c-2.25,1.03-9.84,0.98-9.84,0.98"/>
</svg>
